<?xml version="1.0" encoding="iso-8859-1"?>
<!-- Generator: Adobe Illustrator 16.0.3, SVG Export Plug-In . SVG Version: 6.00 Build 0)  -->
<!DOCTYPE svg PUBLIC "-//W3C//DTD SVG 1.1//EN" "http://www.w3.org/Graphics/SVG/1.1/DTD/svg11.dtd">
<svg version="1.1" xmlns="http://www.w3.org/2000/svg" xmlns:xlink="http://www.w3.org/1999/xlink" x="0px" y="0px"
	 width="552.18px" height="104.477px" viewBox="0 0 552.18 104.477" style="enable-background:new 0 0 552.18 104.477;"
	 xml:space="preserve">
<g id="dirk-jan-tekst">
	<g id="header">
		<path style="fill:#FFFF46;" d="M173.514,101.905c-2.43-1.061-5.119-2.207-5.976-2.555c-2.438-0.98-10.353-4.346-12.729-5.41
			c-0.701-0.313-1.443-0.646-1.649-0.736c-0.206-0.09-1.046-0.475-1.867-0.849c-0.822-0.376-2.195-0.974-3.05-1.331
			c-1.87-0.777-5.47-2.305-6.163-2.609c-1.486-0.66-5.564-2.242-5.776-2.242c-0.134,0-0.278,0.107-0.32,0.24
			c-0.043,0.135-0.014,1.791,0.064,3.686c0.076,1.896,0.106,3.574,0.066,3.736c-0.111,0.447-0.131,0.451-12.397,3.466
			c-8.039,1.975-8.117,1.991-8.323,1.603c-0.063-0.12-0.15-1.198-0.194-2.396c-0.043-1.198-0.105-2.823-0.14-3.61
			c-0.03-0.787-0.11-4.851-0.178-9.023c-0.069-4.18-0.15-8.07-0.186-8.652c-0.035-0.583-0.094-3.438-0.133-6.35
			c-0.066-5.307-0.123-7.771-0.25-11.02c-0.076-2.006-0.271-8.965-0.382-13.694c-0.04-1.781-0.112-4.161-0.159-5.291
			c-0.116-2.915-0.092-3.041,0.802-4.067c1.123-1.291,5.548-5.671,7.155-7.082c3.04-2.668,6.031-5.072,8.649-6.947
			c1.462-1.047,5.67-3.763,6.971-4.497c0.82-0.465,1.744-0.987,2.055-1.162c1.67-0.951,5.443-2.722,7.529-3.534
			c4.593-1.787,9.93-3.195,13.634-3.598c1.58-0.171,6.783-0.23,8.029-0.093c4.505,0.502,6.351,0.958,9.835,2.438
			c2.13,0.902,2.9,1.295,4.157,2.109c4.667,3.029,7.982,7.474,9.227,12.36c0.233,0.918,0.267,1.384,0.261,3.609
			c-0.015,3.882-0.351,6.059-1.524,9.901c-2.076,6.781-6.332,13.624-12.305,19.78c-2.759,2.842-4.568,4.352-8.643,7.209
			c-3.521,2.471-7.91,5.291-9.505,6.111c-0.822,0.424-0.665,0.555,2.771,2.316c1.369,0.703,3.524,1.811,4.793,2.459
			c1.267,0.647,3.255,1.67,4.419,2.271c1.164,0.6,3.462,1.775,5.105,2.617c1.643,0.844,3.548,1.832,4.231,2.202
			c0.685,0.37,1.943,1.017,2.801,1.437c0.856,0.418,1.798,0.926,2.097,1.127c0.726,0.49,0.835,0.127-1.473,4.882
			c-0.697,1.438-1.794,3.707-2.437,5.042c-2.7,5.619-3.967,8.029-4.226,8.051C178.045,103.823,175.944,102.965,173.514,101.905z
			 M138.345,58.729c1.599-0.313,3.028-0.676,4.232-1.068c0.411-0.137,1.276-0.416,1.924-0.629c3.781-1.236,7.726-3.145,11.56-5.587
			c2.64-1.681,5.156-3.709,7.97-6.422c1.402-1.352,2.015-2.054,2.864-3.285c1.663-2.408,1.76-2.556,1.763-2.658
			c0.003-0.053,0.144-0.319,0.314-0.593c1.104-1.744,1.509-4.346,0.92-5.916c-0.683-1.825-2.21-2.52-5.216-2.373
			c-3.986,0.192-8.515,1.328-12.886,3.229c-5.599,2.435-10.902,6.084-15.983,10.998l-1.54,1.489l0.082,3.478
			c0.097,4.073,0.16,5.551,0.332,7.586c0.188,2.241,0.078,2.056,1.207,2.05C136.418,59.024,137.521,58.893,138.345,58.729z
			 M335.854,102.292c-3.651-0.489-7.39-1.635-9.521-2.912c-0.549-0.331-1.251-0.729-1.559-0.883
			c-2.191-1.106-5.178-3.629-6.366-5.375c-1.213-1.785-3.031-6.354-3.387-8.511c-0.412-2.5-0.491-6.44-0.165-8.276
			c0.593-3.332,2.037-7.659,3.433-10.271c0.54-1.013,0.925-1.636,1.88-3.043c1.093-1.612,4.345-5.11,4.75-5.11
			c0.126,0,0.229-0.078,0.229-0.172c0-0.097,0.212-0.363,0.471-0.6c0.521-0.472,2.742-2.064,3.327-2.388
			c0.205-0.113,0.735-0.438,1.184-0.719c0.444-0.281,1.619-0.921,2.613-1.416c2.812-1.408,5.158-2.303,7.968-3.031
			c0.513-0.135,1.354-0.354,1.866-0.488c0.514-0.137,1.627-0.375,2.474-0.535c1.567-0.294,1.814-0.431,1.494-0.819
			c-0.286-0.345-2.963-2.557-4.216-3.481c-3.926-2.901-7.454-4.849-11.267-6.217c-0.822-0.294-1.941-0.729-2.49-0.961
			c-0.988-0.421-0.996-0.428-1.033-0.918c-0.04-0.542,0.285-1.76,1.213-4.523c0.82-2.444,2.199-6.781,2.378-7.47
			c0.285-1.108,1.217-3.952,1.424-4.353c0.2-0.387,0.236-0.403,0.729-0.325c1.221,0.188,4.295,1.021,6.49,1.757
			c3.695,1.238,6.739,2.686,9.35,4.448c2.16,1.458,2.209,1.491,3.11,2.204c0.477,0.375,1.106,0.869,1.405,1.099
			c0.299,0.229,1.419,1.188,2.49,2.132c6.014,5.295,11.772,12.538,16.719,21.027c0.332,0.569,0.604,1.068,0.604,1.109
			c0,0.04,0.077,0.161,0.169,0.271c0.095,0.106,0.705,1.205,1.358,2.438c3.07,5.805,5.479,11.902,6.937,17.557
			c0.194,0.754,0.589,2.129,0.876,3.051c0.286,0.924,0.567,1.847,0.625,2.053c0.058,0.205,0.276,0.989,0.49,1.742
			c0.604,2.148,1.974,7.615,2.181,8.715c0.104,0.548,0.27,1.383,0.363,1.855c0.096,0.475,0.146,0.928,0.116,1.01
			c-0.081,0.213-1.154,0.717-2.474,1.162c-1.728,0.582-4.087,1.511-9.148,3.598c-6.642,2.738-7.222,2.947-7.399,2.659
			c-0.046-0.074-0.219-0.878-0.386-1.786s-0.415-2.127-0.555-2.709c-0.141-0.582-0.313-1.324-0.387-1.647
			c-0.07-0.324-0.185-0.621-0.244-0.658c-0.063-0.037-0.913,0.527-1.896,1.261c-2.82,2.102-5.803,3.879-8.455,5.039
			c-0.5,0.22-1.189,0.524-1.531,0.68c-2.292,1.031-6.004,2.072-9.149,2.567C342.857,102.454,337.75,102.549,335.854,102.292z
			 M345.69,81.193c1.935-0.526,4.305-1.651,5.852-2.78c1.029-0.752,2.765-2.533,3.347-3.438c0.665-1.03,1.012-2.15,1.012-3.28
			c0-2.314-1.715-3.655-4.979-3.896c-2.125-0.156-5.547,0.753-8.031,2.135c-2.571,1.431-5.479,4.388-6.085,6.189
			c-0.228,0.678-0.261,1.92-0.068,2.605c0.321,1.166,1.423,2.018,3.293,2.553c0.896,0.256,1.186,0.275,2.861,0.226
			C344.227,81.464,345.022,81.376,345.69,81.193z M191.778,101.31c-0.319-0.294-0.325-0.329-0.337-2.085
			c-0.005-0.98-0.058-2.347-0.114-3.03c-0.347-4.183-0.155-22.545,0.3-28.446c0.034-0.444,0.09-1.369,0.126-2.055
			c0.035-0.685,0.093-1.638,0.129-2.117c0.034-0.479,0.147-2.104,0.251-3.608c0.273-3.983,0.456-6.03,0.99-11.093
			c0.642-6.09,1.597-13.277,1.943-14.645c0.133-0.527,0.354-0.62,1.977-0.827c0.916-0.116,10.69-1.524,13.882-1.998
			c2.679-0.399,2.999-0.418,3.232-0.185c0.16,0.161,0.188,0.348,0.132,0.844c-0.074,0.648-0.346,4.201-0.563,7.36
			c-0.065,0.959-0.178,2.388-0.244,3.175c-0.113,1.288-0.238,3.201-0.44,6.755c-0.1,1.755-0.004,1.757,2.11,0.031
			c1.211-0.988,7.839-6.287,11.521-9.211c0.994-0.789,2.527-2.008,3.411-2.71c0.882-0.702,1.898-1.501,2.257-1.774
			c0.359-0.272,2.039-1.617,3.734-2.987c1.695-1.37,3.621-2.926,4.278-3.457c0.657-0.53,1.673-1.339,2.254-1.797
			c0.584-0.458,1.423-1.146,1.869-1.53c0.444-0.384,1.116-0.919,1.492-1.188c0.378-0.27,0.761-0.561,0.851-0.646
			c0.091-0.088,0.295-0.158,0.455-0.158c0.331,0,0.591,0.388,5.539,8.279c1.116,1.779,2.631,4.188,3.364,5.353
			c0.736,1.164,1.465,2.41,1.617,2.771c0.155,0.358,0.328,0.653,0.387,0.653c0.2,0,0.508,0.609,0.43,0.852
			c-0.041,0.133-0.423,0.471-0.85,0.751c-1.104,0.728-4.759,3.382-6.252,4.542c-0.207,0.16-1.551,1.179-2.986,2.265
			c-1.438,1.086-3.172,2.396-3.853,2.914c-2.215,1.688-3.328,2.528-6.176,4.677c-1.543,1.163-2.953,2.229-3.133,2.364
			c-0.69,0.528-7.035,5.292-7.507,5.639c-2.734,1.998-3.61,2.688-3.61,2.836c0,0.26,2.016,1.662,6.723,4.682
			c4.017,2.576,4.249,2.723,9.461,5.926c0.616,0.377,1.682,1.035,2.366,1.461c0.686,0.425,1.819,1.127,2.523,1.562
			c0.703,0.432,1.337,0.855,1.407,0.94c0.237,0.287,0.165,0.607-0.344,1.482c-0.6,1.029-4.003,7.059-4.991,8.838
			c-0.381,0.686-0.957,1.723-1.283,2.305c-0.325,0.581-0.945,1.702-1.379,2.488c-0.556,1.007-0.864,1.441-1.037,1.467
			c-0.313,0.043-3.612-1.645-9.089-4.646c-0.343-0.188-1.407-0.759-2.365-1.269c-0.959-0.512-1.885-1.018-2.057-1.129
			c-0.354-0.229-2.925-1.653-4.479-2.484c-0.582-0.31-1.115-0.606-1.183-0.659c-0.12-0.093-4.942-2.937-6.455-3.808
			c-0.399-0.229-0.773-0.391-0.831-0.354c-0.148,0.095-0.22,0.522-0.429,2.676c-0.194,2-0.402,5.152-0.52,7.845
			c-0.095,2.194-0.135,2.291-1.08,2.602c-1.957,0.643-6.293,1.658-12.225,2.871c-1.369,0.277-2.994,0.616-3.61,0.75
			c-0.616,0.133-1.154,0.242-1.195,0.245C192.134,101.606,191.955,101.475,191.778,101.31z M267.942,101.104
			c-3.591-0.354-6.802-1.192-9.336-2.454c-2.552-1.264-6.316-4.566-7.521-6.596c-1.248-2.103-3.102-6.499-3.683-8.742
			c-0.413-1.596-0.61-3.646-0.612-6.354c-0.002-3.354,0.305-5.616,1.185-8.715c1.571-5.537,3.979-10.133,7.762-14.808
			c1.92-2.374,2.402-2.871,2.8-2.871c0.357,0,1.196,0.779,2.96,2.752c0.803,0.901,4.055,4.312,8.418,8.826
			c1.938,2.003,2.825,3.103,2.821,3.484c-0.002,0.104-0.841,1.043-1.864,2.09c-2.276,2.322-2.949,3.309-3.619,5.318
			c-0.244,0.732-0.29,1.137-0.297,2.553c-0.006,1.58,0.015,1.729,0.347,2.49c0.997,2.289,1.354,2.643,3.22,3.209
			c1.779,0.539,2.658,0.672,4.457,0.676c2.594,0.006,4.202-0.375,6.163-1.455c1.859-1.027,2.473-1.508,4.371-3.443
			c2.146-2.188,2.477-2.563,3.432-3.966c3.641-5.337,5.279-11.612,4.65-17.804c-0.244-2.422-1.14-8-1.753-10.937
			c-0.239-1.141-0.571-2.747-0.739-3.568c-0.485-2.384-0.933-4.092-1.095-4.192c-0.083-0.051-0.263-0.07-0.397-0.043
			c-2.428,0.479-5.92,1.493-8.779,2.548c-1.548,0.571-6.066,2.413-6.638,2.705c-0.458,0.235-0.63,0.092-0.904-0.748
			c-0.114-0.354-0.285-0.784-0.376-0.955c-0.09-0.17-0.554-1.291-1.028-2.489c-0.474-1.199-1.6-4.027-2.503-6.288
			c-3.096-7.749-3.313-8.391-2.975-8.717c0.206-0.196,1.254-0.557,1.637-0.562c0.151-0.002,1.005-0.197,1.896-0.433
			c4.498-1.193,9.354-2.332,11.392-2.673c0.376-0.063,1.3-0.23,2.053-0.372c0.755-0.142,1.902-0.34,2.554-0.438
			c0.65-0.1,1.742-0.269,2.429-0.375c2.425-0.376,3.989-0.583,4.421-0.583c0.238,0,1.779-0.106,3.423-0.237
			c5.42-0.429,7.042-0.494,12.379-0.495c5.825-0.002,7.214,0.042,10.937,0.344c2.006,0.163,2.602,0.253,2.908,0.44l0.392,0.237
			l-0.079,0.955c-0.133,1.588-0.439,4.982-0.575,6.373c-0.315,3.253-0.383,3.889-0.556,5.333c-0.303,2.513-0.592,4.239-0.75,4.455
			c-0.139,0.186-0.297,0.182-2.005-0.058c-2.814-0.393-4.513-0.519-7.001-0.519h-2.266v0.295c0,0.162,0.162,0.849,0.362,1.524
			c0.949,3.226,2.142,8.423,2.633,11.485c0.255,1.606,0.605,4.739,0.75,6.737c0.184,2.524,0.076,8.211-0.191,10.119
			c-0.953,6.828-3.813,14.215-7.479,19.326c-5.152,7.184-12.482,12.711-20.536,15.49c-3.114,1.076-6.008,1.719-9.274,2.061
			C273.943,101.247,269.697,101.276,267.942,101.104z M9.181,97.249c-2.511-0.144-4.708-0.332-5.916-0.514
			c-0.742-0.109-1.049-0.219-1.319-0.468c-0.351-0.322-0.354-0.34-0.412-2.129c-0.032-0.994-0.117-2.813-0.188-4.047
			c-0.188-3.285-0.481-10.904-0.588-15.188c-0.205-8.387-0.037-30.674,0.271-35.791c0.029-0.514,0.114-2.307,0.187-3.983
			c0.071-1.678,0.185-3.947,0.246-5.042c0.063-1.096,0.146-2.748,0.186-3.672c0.038-0.924,0.098-2.045,0.132-2.489
			c0.06-0.766,0.418-7.284,0.502-9.142c0.035-0.767,0.078-0.894,0.388-1.155c0.438-0.368,1.908-1.366,2.653-1.8
			c1.564-0.911,7.978-4.021,9.221-4.471c5.535-2.006,9.808-3.194,13.127-3.65c6.908-0.952,13.021-0.892,18.799,0.188
			c3.806,0.71,7.959,2.058,10.894,3.532c1.688,0.849,4.644,2.575,6.039,3.524c5.143,3.505,9.922,8.909,13.288,15.025
			c1.578,2.867,3.593,9.078,4.154,12.812c0.202,1.341,0.267,5.124,0.114,6.859c-0.384,4.434-1.826,9.445-3.869,13.446
			c-0.942,1.849-3.945,6.771-4.898,8.029c-0.389,0.514-0.852,1.158-1.027,1.432c-0.179,0.273-0.483,0.667-0.678,0.872
			c-0.193,0.205-0.771,0.877-1.283,1.493c-1.196,1.439-4.854,5.1-6.3,6.302c-1.186,0.985-3.156,2.535-3.622,2.852
			c-0.154,0.103-0.802,0.553-1.441,1.004c-6.27,4.41-14.387,8.426-25.002,12.363c-4.588,1.702-9.872,3.023-14.255,3.566
			C16.231,97.299,11.983,97.409,9.181,97.249z M24.714,71.161c5.171-1.16,11.134-3.563,15.664-6.309
			c3.012-1.828,6.294-4.348,8.906-6.84c1.54-1.468,4.018-4.33,4.778-5.519c0.262-0.41,0.682-1.056,0.932-1.433
			c2.357-3.56,3.81-7.39,4.041-10.672c0.136-1.892-0.464-4.843-1.331-6.569c-0.581-1.158-1.599-2.778-1.79-2.852
			c-0.094-0.036-0.275-0.236-0.4-0.444c-0.435-0.715-2.25-2.028-4.254-3.082c-5.904-3.1-14.279-3.389-21.91-0.758
			c-2.012,0.693-5.21,2.275-5.351,2.646c-0.061,0.156-0.171,1.482-0.247,2.947c-0.075,1.465-0.188,3.25-0.251,3.969
			s-0.175,2.372-0.248,3.673c-0.072,1.302-0.188,3.262-0.254,4.357c-0.343,5.673-0.434,9.33-0.435,17.243
			c0,4.689,0.045,8.851,0.103,9.243C22.788,71.622,22.714,71.608,24.714,71.161z M84.262,97.161
			c-0.28-0.229-0.292-0.307-0.323-2.281c-0.046-2.678-0.166-6.321-0.268-7.959c-0.125-2.008-0.063-17.627,0.087-22.037
			c0.074-2.156,0.158-4.789,0.188-5.85c0.117-4.013,0.757-14.103,1.025-16.186c0.076-0.59,0.137-0.707,0.446-0.854
			c0.464-0.222,3.485-0.571,7.111-0.823c3.39-0.236,9.623-0.781,10.769-0.943c1.257-0.176,2.188-0.148,2.367,0.07
			c0.158,0.189,0.063,2.109-0.254,5.226c-0.221,2.154-0.917,14.097-1.239,21.228c-0.157,3.48-0.451,12.398-0.624,18.984
			c-0.171,6.528-0.216,7.232-0.498,7.866c-0.252,0.575-0.276,0.585-1.931,0.728c-1.134,0.098-4.159,0.6-6.009,0.998
			c-5.35,1.152-7.938,1.68-8.807,1.789c-0.547,0.068-1.166,0.159-1.374,0.203C84.659,97.374,84.472,97.331,84.262,97.161z
			 M390.958,95.603c-0.11-0.172-0.234-0.931-0.318-1.96c-0.074-0.925-0.22-2.298-0.315-3.052c-0.176-1.348-0.521-6.924-0.623-10.083
			c-0.028-0.892-0.1-2.601-0.151-3.798c-0.19-4.278-0.09-19.59,0.152-22.721c0.031-0.41,0.085-1.308,0.118-1.992
			c0.072-1.574,0.415-6.958,0.507-8.028c0.353-4.097,0.438-5.127,0.556-6.537c0.073-0.89,0.158-1.702,0.188-1.805
			c0.028-0.104,0.171-1.308,0.312-2.677c0.143-1.369,0.313-3.022,0.38-3.673c0.242-2.348,0.519-3.326,0.985-3.513
			c1.386-0.549,6.92-1.833,13.611-3.16l2.213-0.438L409,22.43c0.234,0.146,0.69,0.639,1.014,1.097
			c1.479,2.094,3.171,4.6,4.271,6.311c1.465,2.283,2.363,3.59,3.182,4.618c0.344,0.432,0.774,0.998,0.959,1.258
			c0.188,0.259,0.607,0.85,0.937,1.309c0.328,0.46,0.709,1.007,0.846,1.214c0.976,1.483,2.306,3.352,2.729,3.832
			c0.276,0.315,0.673,0.833,0.88,1.152c0.206,0.319,0.776,1.08,1.271,1.69c0.492,0.61,1.568,2.009,2.392,3.106
			c1.845,2.467,4.107,5.279,4.396,5.458c0.14,0.086,0.253,0.091,0.326,0.013c0.062-0.067,0.175-2.14,0.256-4.604
			c0.141-4.408,0.435-10.67,0.563-12.013c0.035-0.376,0.097-1.245,0.135-1.931c0.037-0.683,0.123-1.972,0.189-2.861
			c0.066-0.891,0.178-2.458,0.242-3.486c0.195-2.99,0.266-3.601,0.434-3.777c0.159-0.167,4.396-0.502,12.08-0.954
			c1.851-0.109,4.092-0.241,4.979-0.294c2.128-0.127,2.99-0.096,3.247,0.116c0.224,0.186,0.215,0.562-0.073,3.664
			c-0.453,4.882-1.077,13.237-1.31,17.554c-0.723,13.372-1.14,35.458-0.813,42.987c0.185,4.215,0.215,4.07-0.906,4.17
			c-0.354,0.029-1.43,0.254-2.389,0.496c-0.958,0.242-2.414,0.591-3.236,0.773c-0.82,0.182-2.055,0.467-2.737,0.633
			c-3.847,0.934-6.189,1.422-6.479,1.35c-0.334-0.084-0.954-0.891-5.551-7.209c-1.246-1.711-2.64-3.616-3.096-4.231
			c-0.459-0.615-1.433-1.961-2.162-2.987c-0.73-1.027-1.486-2.063-1.679-2.304c-0.315-0.396-2.697-3.771-4.565-6.475
			c-1.151-1.667-2.73-3.929-3.734-5.354c-0.509-0.717-1.135-1.613-1.395-1.989c-0.259-0.375-1.006-1.438-1.658-2.365
			c-0.654-0.924-1.448-2.049-1.764-2.498c-0.605-0.857-0.933-1.193-1.047-1.08c-0.139,0.141-0.285,1.844-0.534,6.131
			c-0.45,7.719-0.534,10.992-0.49,18.731l0.042,7.527l-0.475,0.266c-0.263,0.146-1.045,0.396-1.742,0.55
			c-1.413,0.316-9.191,2.276-12.849,3.236c-1.302,0.34-2.404,0.621-2.455,0.623C391.179,95.883,391.056,95.756,390.958,95.603z
			 M372.955,40.869c-3.812-0.836-6.609-3.387-7.614-6.931c-0.383-1.354-0.38-3.647,0.006-5.097c0.979-3.667,3.731-6.681,7.24-7.921
			c1.594-0.564,2.67-0.732,4.689-0.729c2.271,0.003,3.562,0.262,5.182,1.033c2.675,1.278,4.209,3.033,5.082,5.816
			c0.409,1.302,0.409,4.046,0,5.534c-0.604,2.196-1.959,4.344-3.638,5.762c-1.141,0.959-3.252,2.037-4.724,2.405
			C377.645,41.128,374.431,41.191,372.955,40.869z M378.431,38.241c3.803-1.08,6.345-4.313,6.353-8.074
			c0.002-1.946-0.628-3.517-1.973-4.907c-1.552-1.606-3.497-2.292-6.169-2.171c-1.708,0.078-2.528,0.294-3.943,1.035
			c-1.143,0.594-2.714,2.123-3.39,3.288c-1.636,2.823-1.526,6.186,0.267,8.417c1.097,1.364,2.435,2.175,4.313,2.61
			C374.942,38.684,377.222,38.583,378.431,38.241z M377.968,35.605c-0.53-0.696-1.249-1.635-1.595-2.085
			c-0.473-0.618-0.704-0.819-0.936-0.819c-0.3,0-0.308,0.024-0.401,1.369c-0.054,0.754-0.137,1.565-0.188,1.805l-0.089,0.437
			l-1.058-0.043c-0.582-0.023-1.109-0.09-1.17-0.147c-0.229-0.218-0.813-10.267-0.606-10.471c0.209-0.209,2.279-0.479,3.663-0.479
			c3.19-0.001,5.494,1.026,5.95,2.654c0.206,0.734,0.083,1.581-0.341,2.365c-0.377,0.694-0.813,1.093-1.663,1.524
			c-0.332,0.168-0.604,0.365-0.604,0.437c0,0.072,0.59,0.771,1.309,1.549c0.72,0.78,1.309,1.475,1.309,1.544
			c0,0.242-2.05,1.628-2.409,1.628C379.025,36.872,378.499,36.304,377.968,35.605z M377.879,29.716
			c0.72-0.352,0.971-0.769,0.677-1.123c-0.411-0.498-3.116-0.795-3.283-0.362c-0.04,0.109-0.074,0.593-0.074,1.076v0.878
			l1.002-0.067C376.93,30.064,377.384,29.958,377.879,29.716z M93.744,36.744c-1.864-0.235-4.18-0.976-5.871-1.876
			c-3.918-2.086-7.405-6.15-8.771-10.22c-0.918-2.734-1.19-6.156-0.712-8.918C79.438,9.692,83.303,4.56,88.61,2.158
			c1.029-0.467,3.101-1.072,4.554-1.33c1.432-0.255,5.375-0.193,6.713,0.105c4.37,0.979,8.121,3.453,10.891,7.187
			c2.268,3.059,3.191,5.713,3.327,9.552c0.107,3.044-0.385,5.856-1.438,8.229c-2.533,5.709-7.138,9.375-13.466,10.721
			C98.293,36.812,94.893,36.889,93.744,36.744z"/>
		<path d="M178.181,104.477c-0.12,0-0.438,0-4.934-1.961c-2.433-1.06-5.105-2.201-5.958-2.545
			c-2.462-0.992-10.327-4.335-12.752-5.42l-1.65-0.738c-0.202-0.09-1.046-0.473-1.871-0.851c-0.817-0.372-2.182-0.967-3.03-1.321
			c-1.938-0.808-5.497-2.314-6.176-2.615c-1.285-0.57-4.083-1.658-5.188-2.055c0.009,0.539,0.032,1.646,0.093,3.102
			c0.042,1.063,0.133,3.576,0.047,3.924c-0.209,0.838-0.209,0.838-12.886,3.953c-5.84,1.435-7.409,1.818-8.104,1.818
			c-0.604,0-0.842-0.314-0.968-0.553c-0.051-0.099-0.187-0.354-0.271-2.688c-0.043-1.196-0.105-2.819-0.14-3.605
			c-0.03-0.8-0.11-4.854-0.178-9.042c-0.071-4.286-0.152-8.074-0.185-8.624c-0.039-0.654-0.099-3.775-0.134-6.38
			c-0.066-5.308-0.122-7.773-0.25-11.002c-0.074-1.978-0.269-8.894-0.382-13.705c-0.04-1.777-0.112-4.152-0.158-5.28
			c-0.118-2.949-0.097-3.313,0.965-4.532c1.142-1.313,5.595-5.721,7.22-7.146c3.061-2.688,6.069-5.104,8.7-6.988
			c1.507-1.079,5.713-3.792,7.032-4.535l2.055-1.163c1.7-0.97,5.475-2.74,7.614-3.574c4.633-1.804,10.051-3.231,13.803-3.639
			c1.049-0.113,3.497-0.173,5.374-0.173c0.775,0,2.169,0.01,2.802,0.081c4.59,0.511,6.463,0.977,10.022,2.486
			c2.165,0.918,2.961,1.322,4.26,2.165c4.838,3.14,8.215,7.67,9.509,12.755c0.251,0.98,0.287,1.476,0.281,3.775
			c-0.015,3.934-0.362,6.197-1.554,10.095c-2.107,6.885-6.418,13.817-12.465,20.05c-2.774,2.857-4.652,4.426-8.736,7.29
			c-3.352,2.351-7.432,4.981-9.262,5.986c0.566,0.338,1.551,0.842,2.448,1.303l4.793,2.459c1.268,0.647,3.256,1.671,4.42,2.271
			c1.163,0.599,3.461,1.775,5.104,2.617c1.648,0.844,3.559,1.838,4.246,2.209c0.678,0.367,1.927,1.007,2.775,1.422
			c0.889,0.437,1.844,0.949,2.176,1.172l0.118,0.078c1.058,0.672,0.906,0.982-0.941,4.784l-0.42,0.864
			c-0.698,1.438-1.794,3.707-2.437,5.041c-4.02,8.363-4.224,8.381-4.77,8.427L178.181,104.477z M136.303,85.505
			c0.494,0,5.446,2.033,6.047,2.3c0.673,0.297,4.218,1.801,6.149,2.604c0.86,0.358,2.243,0.961,3.07,1.34
			c0.815,0.373,1.651,0.752,1.856,0.843l1.655,0.741c2.357,1.055,10.313,4.437,12.705,5.398c0.863,0.35,3.551,1.496,5.993,2.561
			c2.047,0.894,3.545,1.507,4.191,1.75c0.518-0.809,1.805-3.349,3.834-7.573c0.646-1.336,1.739-3.604,2.438-5.045l0.421-0.865
			c0.786-1.617,1.298-2.67,1.419-3.08l-0.142-0.093c-0.242-0.163-1.131-0.646-2.016-1.079c-0.871-0.427-2.139-1.075-2.826-1.447
			c-0.681-0.367-2.58-1.354-4.218-2.193c-1.645-0.842-3.941-2.021-5.106-2.619c-1.164-0.602-3.151-1.621-4.417-2.271l-4.794-2.459
			c-2.866-1.472-3.548-1.818-3.548-2.547c-0.001-0.56,0.506-0.818,0.775-0.959c1.56-0.801,5.964-3.635,9.428-6.063
			c4.05-2.84,5.809-4.307,8.546-7.127c5.899-6.08,10.101-12.829,12.146-19.513c1.16-3.796,1.48-5.883,1.495-9.708
			c0.006-2.176-0.023-2.594-0.24-3.441c-1.211-4.759-4.387-9.009-8.942-11.965c-1.219-0.79-1.977-1.175-4.055-2.057
			c-3.413-1.448-5.217-1.895-9.647-2.389c-0.415-0.046-1.384-0.073-2.654-0.073c-2.111,0-4.36,0.071-5.229,0.166
			c-3.646,0.396-8.93,1.791-13.463,3.555c-2.056,0.802-5.812,2.563-7.441,3.493l-2.056,1.163c-1.265,0.713-5.463,3.421-6.911,4.458
			c-2.597,1.86-5.568,4.248-8.598,6.906c-1.599,1.402-5.974,5.731-7.094,7.019c-0.747,0.859-0.747,0.859-0.637,3.603
			c0.046,1.133,0.118,3.518,0.158,5.303c0.113,4.809,0.307,11.713,0.383,13.686c0.126,3.239,0.183,5.715,0.25,11.034
			c0.039,2.993,0.098,5.769,0.131,6.316c0.038,0.656,0.125,4.963,0.187,8.682c0.066,4.181,0.146,8.224,0.179,9.011
			c0.033,0.787,0.096,2.414,0.139,3.612c0.031,0.866,0.081,1.56,0.121,1.935c0.822-0.104,3.007-0.642,7.57-1.763
			c8.145-2.001,11.237-2.762,11.908-3.062c0.008-0.388-0.012-1.663-0.085-3.466c-0.146-3.561-0.063-3.824-0.034-3.912
			C135.475,85.803,135.878,85.505,136.303,85.505z M339.18,103.106c-1.472,0-2.685-0.055-3.414-0.15
			c-3.732-0.504-7.569-1.684-9.772-3.004c-0.535-0.321-1.218-0.707-1.52-0.859c-2.274-1.148-5.366-3.764-6.614-5.594
			c-1.265-1.859-3.124-6.533-3.493-8.776c-0.431-2.604-0.506-6.577-0.164-8.502c0.604-3.398,2.077-7.802,3.501-10.468
			c0.554-1.037,0.947-1.676,1.917-3.104c0.446-0.658,3.631-4.6,4.967-5.299c0.091-0.176,0.263-0.41,0.587-0.703
			c0.566-0.512,2.825-2.131,3.452-2.478c0.199-0.108,0.716-0.424,1.149-0.698c0.467-0.295,1.666-0.945,2.671-1.448
			c2.838-1.421,5.26-2.342,8.099-3.081l1.865-0.486c0.515-0.137,1.646-0.379,2.519-0.544c0.266-0.05,0.488-0.095,0.672-0.136
			c-0.845-0.741-2.622-2.202-3.666-2.974c-3.898-2.882-7.32-4.771-11.096-6.125c-0.817-0.293-1.951-0.729-2.526-0.976
			c-1.021-0.438-1.367-0.583-1.437-1.482c-0.049-0.66,0.266-1.867,1.245-4.786c0.854-2.542,2.201-6.792,2.365-7.425
			c0.279-1.093,1.227-4.008,1.477-4.491c0.149-0.288,0.375-0.723,0.993-0.723c0.105,0,0.245,0.016,0.432,0.045
			c1.269,0.197,4.353,1.03,6.601,1.784c3.748,1.254,6.857,2.735,9.512,4.527c2.144,1.447,2.227,1.505,3.15,2.235
			c0.473,0.371,1.101,0.863,1.396,1.091c0.314,0.241,1.446,1.21,2.526,2.162c6.054,5.331,11.882,12.659,16.854,21.191
			c0.438,0.752,0.602,1.059,0.66,1.228l0.047,0.063c0.189,0.215,1.069,1.856,1.438,2.555c3.103,5.859,5.521,11.98,6.991,17.701
			c0.192,0.75,0.581,2.104,0.866,3.02c0.289,0.933,0.572,1.862,0.631,2.07l0.489,1.74c0.611,2.17,1.985,7.662,2.194,8.771
			c0.104,0.545,0.267,1.377,0.36,1.849c0.215,1.055,0.125,1.276,0.083,1.385c-0.065,0.18-0.253,0.664-2.879,1.551
			c-1.699,0.574-4.084,1.512-9.108,3.584c-5.776,2.383-6.854,2.807-7.444,2.807c-0.451,0-0.68-0.258-0.775-0.411
			c-0.057-0.093-0.146-0.24-0.476-2.019c-0.17-0.924-0.415-2.124-0.547-2.676c-0.118-0.494-0.261-1.104-0.347-1.479
			c-0.29,0.197-0.678,0.473-1.134,0.813c-2.851,2.123-5.897,3.938-8.586,5.115c-0.497,0.219-1.185,0.521-1.521,0.676
			c-2.357,1.061-6.104,2.113-9.323,2.619C343.64,103.008,341.087,103.106,339.18,103.106z M325.089,58.563
			c-0.63,0.426-3.352,3.334-4.366,4.832c-0.938,1.385-1.315,1.996-1.844,2.983c-1.367,2.559-2.781,6.795-3.365,10.072
			c-0.313,1.772-0.233,5.61,0.167,8.053c0.343,2.063,2.118,6.531,3.28,8.242c1.123,1.647,4.038,4.104,6.115,5.152
			c0.335,0.169,1.053,0.576,1.602,0.907c2.062,1.234,5.696,2.344,9.268,2.824c0.673,0.09,1.82,0.14,3.234,0.14
			c2.229,0,4.503-0.122,5.66-0.305c3.065-0.482,6.759-1.52,8.981-2.52c0.341-0.153,1.033-0.462,1.536-0.683
			c2.598-1.135,5.554-2.896,8.323-4.963c1.87-1.394,2.093-1.394,2.285-1.394h0.188l0.168,0.099c0.117,0.071,0.355,0.219,0.55,1.084
			c0.072,0.319,0.244,1.059,0.383,1.638s0.385,1.784,0.563,2.744c0.098,0.529,0.187,0.97,0.251,1.266
			c0.84-0.255,3.086-1.176,6.624-2.635c5.118-2.108,7.438-3.021,9.189-3.612c1.05-0.354,1.715-0.666,2.009-0.834
			c-0.017-0.143-0.047-0.342-0.095-0.572c-0.096-0.477-0.26-1.313-0.364-1.863c-0.205-1.092-1.563-6.512-2.168-8.658l-0.488-1.744
			c-0.059-0.202-0.337-1.118-0.619-2.032c-0.291-0.935-0.688-2.315-0.887-3.082c-1.445-5.621-3.824-11.643-6.881-17.41
			c-0.701-1.325-1.203-2.211-1.295-2.34c-0.171-0.203-0.249-0.36-0.283-0.485c-0.063-0.125-0.252-0.476-0.539-0.972
			c-4.899-8.408-10.636-15.623-16.583-20.86c-1.15-1.014-2.198-1.907-2.455-2.104c-0.301-0.229-0.937-0.727-1.413-1.103
			c-0.878-0.694-0.906-0.715-3.071-2.177c-2.551-1.725-5.557-3.152-9.188-4.368c-2.151-0.722-5.193-1.547-6.382-1.731l-0.043-0.007
			c-0.18,0.385-1.063,3.038-1.358,4.192c-0.188,0.72-1.572,5.074-2.394,7.516c-0.57,1.699-1.221,3.72-1.181,4.263l0.005,0.074
			c0.128,0.067,0.38,0.175,0.625,0.279c0.546,0.232,1.669,0.667,2.453,0.947c3.849,1.381,7.48,3.385,11.438,6.308
			c1.124,0.83,3.962,3.146,4.332,3.591c0.267,0.321,0.341,0.642,0.229,0.953c-0.206,0.567-0.865,0.717-2.111,0.95
			c-0.848,0.159-1.937,0.396-2.427,0.522l-1.868,0.487c-2.78,0.726-5.051,1.588-7.837,2.983c-0.957,0.478-2.127,1.11-2.556,1.382
			c-0.459,0.291-1.009,0.623-1.22,0.74c-0.532,0.295-2.719,1.863-3.201,2.299c-0.135,0.121-0.229,0.23-0.272,0.293
			C325.714,58.249,325.436,58.501,325.089,58.563z M192.175,102.271c-0.175,0-0.384-0.037-0.853-0.476
			c-0.534-0.491-0.536-0.729-0.548-2.567c-0.005-0.967-0.056-2.303-0.112-2.979c-0.35-4.224-0.156-22.635,0.3-28.556
			c0.034-0.44,0.089-1.356,0.125-2.036c0.035-0.688,0.094-1.647,0.13-2.134c0.034-0.476,0.147-2.1,0.25-3.604
			c0.274-3.984,0.46-6.063,0.993-11.116c0.649-6.164,1.603-13.326,1.96-14.737c0.26-1.033,1.021-1.131,2.539-1.323
			c0.914-0.117,10.636-1.518,13.868-1.997c1.619-0.242,2.369-0.344,2.824-0.344c0.312,0,0.672,0.041,0.977,0.347
			c0.4,0.4,0.382,0.887,0.324,1.392c-0.074,0.647-0.347,4.209-0.561,7.33c-0.065,0.963-0.178,2.397-0.245,3.188
			c-0.112,1.278-0.239,3.229-0.438,6.735c-0.005,0.078-0.011,0.19-0.016,0.313c0.31-0.241,0.722-0.578,1.038-0.836
			c1.196-0.979,7.769-6.232,11.526-9.219l3.411-2.71c0.886-0.706,1.907-1.508,2.268-1.782c0.356-0.272,2.03-1.612,3.721-2.978
			l4.276-3.457c0.661-0.532,1.68-1.344,2.262-1.802c0.577-0.453,1.405-1.133,1.848-1.512c0.461-0.397,1.152-0.947,1.54-1.226
			c0.339-0.242,0.683-0.5,0.775-0.587c0.243-0.234,0.638-0.342,0.916-0.342c0.718,0,0.718,0,6.104,8.591
			c1.116,1.779,2.63,4.188,3.364,5.353c0.671,1.061,1.479,2.423,1.666,2.863c0.068,0.159,0.132,0.281,0.176,0.358
			c0.116,0.067,0.238,0.171,0.354,0.332c0.187,0.255,0.459,0.812,0.308,1.282c-0.117,0.38-0.672,0.811-1.116,1.103
			c-1.086,0.715-4.742,3.372-6.21,4.511c-0.208,0.161-1.555,1.184-2.994,2.271c-1.438,1.085-3.171,2.396-3.85,2.912
			c-2.216,1.688-3.33,2.528-6.18,4.679c-1.542,1.163-2.95,2.229-3.13,2.362c-0.752,0.576-7.064,5.313-7.517,5.646
			c-0.762,0.559-2.336,1.709-3.069,2.305c0.813,0.637,2.872,2.016,6.147,4.113c4.025,2.582,4.292,2.748,9.45,5.918
			c0.615,0.377,1.682,1.037,2.367,1.463s1.817,1.126,2.521,1.561c0.259,0.158,0.487,0.303,0.684,0.43
			c-0.153-1.229-0.229-2.658-0.229-4.348c-0.002-3.416,0.313-5.744,1.21-8.896c1.602-5.645,4.033-10.282,7.884-15.044
			c2.076-2.566,2.591-3.119,3.318-3.119c0.563,0,1.168,0.413,3.457,2.977c0.802,0.897,4.02,4.271,8.399,8.807
			c2.795,2.894,3.015,3.482,3.009,3.955c-0.005,0.259-0.009,0.458-2.055,2.55c-2.213,2.259-2.827,3.156-3.463,5.063
			c-0.203,0.61-0.256,0.92-0.263,2.345c-0.006,1.539,0.011,1.578,0.291,2.219c0.961,2.207,1.202,2.354,2.801,2.839
			c1.725,0.522,2.521,0.646,4.266,0.647h0.001c2.485,0,3.999-0.359,5.838-1.373c1.809-0.998,2.358-1.435,4.217-3.326
			c2.117-2.154,2.432-2.519,3.355-3.875c3.537-5.187,5.148-11.353,4.539-17.359c-0.24-2.383-1.137-7.967-1.742-10.866
			c-0.238-1.143-0.57-2.75-0.738-3.572c-0.402-1.97-0.713-3.164-0.877-3.675c-2.396,0.484-5.774,1.471-8.514,2.48
			c-1.601,0.591-6.065,2.419-6.563,2.674c-0.146,0.074-0.37,0.175-0.628,0.175c-0.786,0-1.055-0.82-1.215-1.311
			c-0.114-0.356-0.271-0.734-0.331-0.849c-0.131-0.248-0.697-1.644-1.06-2.557c-0.474-1.199-1.6-4.026-2.502-6.286
			c-3.443-8.618-3.509-8.782-2.817-9.445c0.379-0.362,1.614-0.741,2.09-0.748c0.108-0.012,0.813-0.167,1.732-0.411
			c4.561-1.209,9.378-2.339,11.452-2.686c0.373-0.063,1.292-0.229,2.041-0.369c0.759-0.143,1.918-0.343,2.574-0.443l2.426-0.375
			c2.525-0.392,4.048-0.591,4.521-0.591c0.194,0,1.629-0.097,3.371-0.234c5.444-0.432,7.07-0.496,12.433-0.497h0.345
			c5.536,0,6.929,0.045,10.645,0.345c2.205,0.179,2.772,0.273,3.203,0.537l0.741,0.45l-0.112,1.365
			c-0.134,1.592-0.439,4.991-0.575,6.383c-0.317,3.262-0.386,3.898-0.56,5.347c-0.514,4.278-0.757,4.609-0.874,4.77
			c-0.264,0.358-0.616,0.404-0.896,0.404c-0.292,0-0.71-0.051-1.738-0.194c-2.775-0.388-4.455-0.512-6.909-0.512h-1.52
			c0.058,0.243,0.145,0.581,0.258,0.963c0.965,3.28,2.154,8.47,2.651,11.57c0.26,1.635,0.611,4.809,0.757,6.792
			c0.187,2.572,0.075,8.324-0.197,10.261c-0.966,6.918-3.878,14.438-7.599,19.624c-5.245,7.313-12.653,12.898-20.86,15.732
			c-3.18,1.099-6.086,1.741-9.424,2.092c-1.027,0.106-2.797,0.175-4.618,0.175c-1.449,0-2.665-0.041-3.423-0.116
			c-3.662-0.358-6.97-1.229-9.567-2.521c-2.665-1.319-6.526-4.715-7.798-6.853c-1.17-1.971-2.803-5.77-3.549-8.194l-0.002,0.002
			c-0.6,1.028-3.999,7.054-4.985,8.828l-1.285,2.307c-0.323,0.58-0.942,1.699-1.377,2.484c-0.756,1.372-1.07,1.742-1.53,1.807
			l-0.104,0.007c-0.27,0-0.771,0-9.396-4.729c-0.342-0.188-1.403-0.756-2.358-1.266c-0.717-0.381-1.869-1.004-2.104-1.156
			c-0.306-0.195-2.778-1.572-4.433-2.455c-0.415-0.223-1.135-0.609-1.279-0.725c-0.226-0.146-4.855-2.879-6.377-3.754l-0.063-0.036
			c-0.07,0.521-0.146,1.305-0.198,1.842c-0.192,1.979-0.399,5.115-0.518,7.81c-0.093,2.162-0.118,2.742-1.539,3.207
			c-1.979,0.646-6.349,1.676-12.298,2.891c-1.367,0.279-2.988,0.615-3.604,0.749c-1.173,0.253-1.25,0.257-1.297,0.26h-0.036V102.271
			z M192.166,100.768l0.064,0.051l0.088,0.08c0.216-0.043,0.55-0.113,0.912-0.189c0.616-0.135,2.246-0.475,3.617-0.752
			c5.901-1.205,10.217-2.221,12.149-2.854c0.543-0.178,0.543-0.178,0.622-1.996c0.117-2.715,0.326-5.881,0.521-7.881
			c0.249-2.56,0.298-2.896,0.735-3.174l0.163-0.103l0.217-0.007c0.09,0,0.363,0,1.143,0.45c1.046,0.604,6.33,3.704,6.525,3.854
			c0.095,0.061,0.572,0.324,1.091,0.602c1.491,0.795,4.133,2.256,4.529,2.512c0.133,0.087,0.971,0.55,2.007,1.101
			c0.961,0.513,2.029,1.084,2.372,1.271c6.087,3.338,8.003,4.242,8.599,4.486c0.112-0.162,0.307-0.467,0.624-1.042
			c0.434-0.788,1.055-1.911,1.381-2.493l1.283-2.303c0.986-1.778,4.396-7.816,4.996-8.85c0.25-0.432,0.339-0.639,0.368-0.736
			c-0.19-0.139-0.64-0.438-1.205-0.783c-0.704-0.434-1.841-1.137-2.524-1.563c-0.686-0.426-1.748-1.082-2.363-1.459
			c-5.17-3.178-5.436-3.344-9.473-5.934c-7.029-4.508-7.029-4.724-7.029-5.242c0-0.465,0-0.533,3.884-3.375
			c0.392-0.286,6.758-5.063,7.495-5.629c0.182-0.139,1.593-1.203,3.137-2.366c2.848-2.146,3.959-2.989,6.174-4.676
			c0.681-0.52,2.414-1.829,3.854-2.916c1.433-1.083,2.773-2.1,2.98-2.26c1.518-1.178,5.163-3.827,6.293-4.571
			c0.227-0.148,0.405-0.293,0.518-0.395l-0.023-0.045c-0.282-0.132-0.479-0.473-0.705-0.994c-0.123-0.29-0.798-1.458-1.568-2.677
			c-0.735-1.166-2.249-3.575-3.367-5.355c-3.115-4.968-4.578-7.293-5.063-7.895c-0.211,0.162-0.615,0.458-0.827,0.609
			c-0.354,0.253-1.018,0.78-1.445,1.149c-0.452,0.39-1.302,1.087-1.894,1.55c-0.578,0.456-1.591,1.263-2.247,1.792l-4.277,3.457
			c-1.705,1.378-3.387,2.723-3.749,2.999c-0.356,0.272-1.368,1.067-2.246,1.766l-3.411,2.711
			c-3.756,2.983-10.318,8.231-11.514,9.206c-1.333,1.09-1.806,1.44-2.304,1.44c-0.24,0-0.463-0.096-0.625-0.268
			c-0.332-0.353-0.32-0.871-0.271-1.761c0.203-3.565,0.327-5.466,0.441-6.775c0.066-0.783,0.179-2.207,0.244-3.163
			c0.215-3.136,0.488-6.729,0.563-7.391c0.014-0.114,0.021-0.195,0.021-0.252c-0.366,0-1.14,0.106-2.624,0.328
			c-3.237,0.481-12.978,1.883-13.896,2.001c-0.41,0.053-1.262,0.161-1.414,0.267c-0.341,1.4-1.295,8.607-1.928,14.611
			c-0.531,5.033-0.716,7.104-0.988,11.068c-0.104,1.508-0.217,3.133-0.251,3.61c-0.036,0.479-0.093,1.427-0.128,2.104
			c-0.036,0.69-0.093,1.623-0.127,2.069c-0.453,5.883-0.646,24.158-0.3,28.343c0.059,0.705,0.111,2.088,0.116,3.082
			C192.113,100.012,192.118,100.637,192.166,100.768z M258.523,51.266c-0.401,0.28-1.561,1.714-2.271,2.592
			c-3.731,4.613-6.088,9.107-7.638,14.569c-0.857,3.021-1.161,5.253-1.159,8.531c0.002,2.635,0.195,4.658,0.591,6.188
			c0.567,2.188,2.389,6.514,3.61,8.568c1.146,1.93,4.804,5.129,7.244,6.338c2.454,1.219,5.603,2.045,9.104,2.388
			c0.706,0.069,1.906,0.11,3.292,0.11c1.778,0,3.495-0.064,4.479-0.167c3.232-0.338,6.048-0.963,9.127-2.025
			c7.947-2.743,15.126-8.159,20.212-15.25c3.603-5.021,6.424-12.313,7.359-19.03c0.267-1.875,0.369-7.471,0.188-9.979
			c-0.143-1.955-0.489-5.076-0.744-6.681c-0.479-3-1.678-8.224-2.613-11.402c-0.016-0.053-0.39-1.317-0.39-1.713v-0.962h2.931
			c2.524,0,4.247,0.127,7.095,0.525c0.635,0.088,1.128,0.154,1.408,0.175c0.086-0.395,0.303-1.575,0.593-3.992
			c0.172-1.439,0.236-2.074,0.554-5.318c0.136-1.388,0.44-4.777,0.574-6.363l0.045-0.543l-0.037-0.022
			c-0.234-0.143-1.421-0.25-2.617-0.347c-3.668-0.296-5.046-0.341-10.536-0.341h-0.345c-5.314,0.001-6.927,0.064-12.326,0.492
			c-1.479,0.117-3.185,0.239-3.476,0.239c-0.146,0-0.883,0.042-4.318,0.575l-2.43,0.375c-0.646,0.099-1.782,0.295-2.529,0.436
			c-0.759,0.143-1.688,0.311-2.064,0.374c-2.008,0.335-6.879,1.479-11.332,2.66c-0.284,0.075-1.719,0.451-2.058,0.455
			c-0.187,0.004-0.791,0.195-1.086,0.333c0.117,0.708,1.159,3.336,3.034,8.031c0.904,2.261,2.03,5.091,2.504,6.29
			c0.516,1.3,0.929,2.289,0.999,2.425c0.124,0.233,0.313,0.723,0.42,1.061c0.044,0.135,0.08,0.233,0.109,0.307
			c1.019-0.483,5.074-2.133,6.566-2.685c2.913-1.074,6.399-2.086,8.883-2.576c0.08-0.018,0.172-0.025,0.262-0.025
			c0.137,0,0.396,0.02,0.613,0.153c0.258,0.158,0.521,0.321,1.399,4.627c0.167,0.821,0.499,2.426,0.737,3.564
			c0.625,2.99,1.516,8.542,1.766,11.003c0.643,6.322-1.052,12.804-4.766,18.248c-0.977,1.431-1.336,1.849-3.506,4.058
			c-1.936,1.973-2.61,2.504-4.524,3.562c-2.062,1.137-3.744,1.539-6.43,1.539c-1.916-0.004-2.872-0.149-4.706-0.706
			c-2.058-0.623-2.567-1.125-3.637-3.58c-0.388-0.887-0.408-1.145-0.402-2.759c0.007-1.41,0.049-1.912,0.331-2.761
			c0.707-2.123,1.413-3.166,3.775-5.576c0.773-0.791,1.35-1.428,1.608-1.737c-0.172-0.256-0.745-1.019-2.568-2.906
			c-4.394-4.545-7.625-7.934-8.438-8.845C259.446,52.026,258.792,51.433,258.523,51.266z M84.729,98.01
			c-0.322,0-0.612-0.107-0.888-0.33c-0.532-0.433-0.537-0.701-0.571-2.79c-0.045-2.688-0.166-6.321-0.266-7.93
			c-0.124-1.998-0.063-17.694,0.086-22.101c0.074-2.155,0.158-4.786,0.188-5.848c0.116-3.996,0.763-14.172,1.032-16.25
			c0.08-0.631,0.182-1.067,0.818-1.372c0.898-0.427,6.695-0.84,7.354-0.886c3.384-0.235,9.596-0.779,10.721-0.938
			c0.57-0.08,1.097-0.122,1.522-0.122c0.771,0,1.205,0.129,1.452,0.429c0.208,0.25,0.427,0.512-0.104,5.718
			c-0.22,2.14-0.913,14.021-1.237,21.188c-0.159,3.539-0.451,12.404-0.623,18.974c-0.177,6.756-0.219,7.363-0.556,8.119
			c-0.412,0.942-0.81,0.978-2.483,1.121c-1.109,0.094-4.101,0.592-5.925,0.983c-5.392,1.164-7.96,1.687-8.863,1.799
			c-0.523,0.067-1.12,0.154-1.319,0.195C84.946,97.997,84.836,98.01,84.729,98.01z M85.695,42.599c-0.01,0-0.029,0.093-0.063,0.336
			c-0.266,2.055-0.904,12.146-1.021,16.118c-0.03,1.063-0.114,3.694-0.188,5.854c-0.147,4.387-0.211,19.991-0.088,21.971
			c0.1,1.625,0.222,5.283,0.268,7.99c0.016,0.889,0.027,1.652,0.08,1.807l0.045,0.002l0.068-0.01
			c0.213-0.045,0.855-0.142,1.423-0.213c0.854-0.107,3.47-0.641,8.75-1.778c1.865-0.402,4.94-0.913,6.093-1.011
			c0.616-0.054,1.198-0.104,1.322-0.164l0.055-0.166c0.229-0.517,0.278-1.368,0.441-7.615c0.173-6.574,0.465-15.452,0.625-18.998
			c0.324-7.186,1.021-19.109,1.241-21.265c0.309-3.022,0.337-4.211,0.324-4.663c-0.292-0.027-0.968-0.005-1.682,0.095
			c-1.144,0.162-7.411,0.711-10.814,0.948C88.469,42.122,86.043,42.46,85.695,42.599L85.695,42.599z M12.114,97.991
			c-1.091,0-2.118-0.025-2.972-0.074c-2.575-0.146-4.755-0.336-5.978-0.521c-0.773-0.111-1.245-0.244-1.672-0.635
			c-0.561-0.515-0.567-0.752-0.629-2.601c-0.032-0.989-0.116-2.804-0.188-4.03C0.49,86.859,0.194,79.187,0.088,74.922
			c-0.203-8.341-0.031-30.787,0.273-35.848c0.029-0.513,0.113-2.301,0.187-3.974c0.071-1.681,0.185-3.954,0.246-5.052
			c0.063-1.093,0.146-2.741,0.186-3.663c0.037-0.932,0.099-2.063,0.133-2.512c0.06-0.763,0.419-7.325,0.501-9.121
			c0.038-0.835,0.102-1.193,0.623-1.634c0.47-0.396,1.959-1.408,2.748-1.867c1.603-0.934,8.055-4.06,9.329-4.521
			c5.566-2.018,9.905-3.223,13.264-3.685c7.046-0.97,13.11-0.908,19.012,0.194c3.853,0.719,8.093,2.095,11.07,3.592
			c1.714,0.861,4.686,2.597,6.114,3.568c5.264,3.587,10.057,9.006,13.497,15.256c1.604,2.914,3.66,9.249,4.229,13.032
			c0.213,1.407,0.277,5.211,0.12,7.019c-0.391,4.505-1.863,9.623-3.94,13.69c-0.97,1.9-3.983,6.839-4.962,8.129
			c-0.376,0.498-0.825,1.125-0.998,1.392c-0.204,0.313-0.533,0.735-0.754,0.97c-0.188,0.198-0.753,0.856-1.254,1.461
			c-1.217,1.465-4.917,5.166-6.387,6.389c-1.195,0.994-3.188,2.561-3.676,2.891c-0.156,0.104-0.798,0.551-1.432,0.996
			c-6.293,4.429-14.521,8.5-25.152,12.443c-4.606,1.709-9.991,3.059-14.405,3.604C17.071,97.868,14.561,97.991,12.114,97.991z
			 M36.917,3.705c-2.919,0-5.914,0.217-9.157,0.664C24.496,4.816,20.247,6,14.771,7.985c-1.203,0.438-7.592,3.533-9.112,4.42
			c-0.713,0.414-2.148,1.388-2.561,1.733l-0.094,0.089c-0.033,0.074-0.052,0.46-0.058,0.587c-0.084,1.861-0.441,8.37-0.503,9.163
			c-0.034,0.439-0.094,1.549-0.13,2.465c-0.04,0.929-0.122,2.585-0.187,3.685c-0.063,1.093-0.175,3.357-0.246,5.032
			c-0.072,1.682-0.156,3.479-0.187,3.994C1.39,44.197,1.22,66.57,1.423,74.892c0.104,4.253,0.401,11.907,0.587,15.165
			c0.07,1.237,0.156,3.065,0.188,4.063c0.026,0.84,0.048,1.446,0.101,1.571l0.098,0.089c0.116,0.106,0.257,0.192,0.966,0.299
			c1.168,0.174,3.356,0.362,5.855,0.506c0.828,0.048,1.829,0.072,2.896,0.072c2.396,0,4.843-0.119,6.384-0.312
			c4.317-0.535,9.591-1.854,14.104-3.53c10.523-3.904,18.652-7.924,24.852-12.283c0.646-0.455,1.3-0.91,1.456-1.016
			c0.413-0.277,2.329-1.777,3.563-2.808c1.431-1.188,5.03-4.789,6.215-6.213c0.521-0.631,1.111-1.316,1.31-1.525
			c0.166-0.176,0.448-0.539,0.604-0.779c0.181-0.278,0.655-0.94,1.055-1.469c0.928-1.225,3.911-6.115,4.838-7.932
			c2.002-3.922,3.422-8.856,3.798-13.2c0.146-1.664,0.084-5.422-0.109-6.703c-0.552-3.664-2.533-9.781-4.079-12.589
			c-3.293-5.982-8.061-11.375-13.079-14.796c-1.365-0.93-4.319-2.653-5.964-3.479c-2.874-1.443-6.98-2.773-10.716-3.472
			C43.293,3.979,40.209,3.705,36.917,3.705z M391.234,96.547h-0.009c-0.112,0-0.457,0-0.831-0.587
			c-0.072-0.112-0.271-0.42-0.422-2.265c-0.072-0.901-0.215-2.258-0.313-3.021c-0.178-1.358-0.524-6.954-0.629-10.147
			c-0.028-0.889-0.1-2.594-0.15-3.788c-0.192-4.306-0.091-19.647,0.153-22.803c0.031-0.404,0.084-1.294,0.117-1.974
			c0.07-1.543,0.415-6.963,0.508-8.053c0.353-4.096,0.438-5.125,0.556-6.534c0.032-0.395,0.146-1.696,0.211-1.935
			c0.021-0.104,0.142-1.105,0.289-2.563l0.381-3.674c0.285-2.768,0.626-3.755,1.402-4.063c1.429-0.565,6.945-1.85,13.729-3.193
			l2.471-0.49l0.649,0.401c0.356,0.221,0.877,0.812,1.208,1.28c1.447,2.049,3.17,4.595,4.286,6.334
			c1.466,2.284,2.349,3.563,3.145,4.563c0.351,0.442,0.792,1.021,0.979,1.288l0.936,1.308c0.334,0.467,0.721,1.023,0.857,1.233
			c0.948,1.441,2.272,3.304,2.675,3.759c0.3,0.34,0.711,0.88,0.938,1.229c0.176,0.272,0.712,0.993,1.23,1.633
			c0.517,0.64,1.595,2.042,2.405,3.129c1.383,1.849,2.819,3.653,3.631,4.62c0.046-0.76,0.099-1.896,0.146-3.377
			c0.141-4.395,0.437-10.705,0.564-12.056c0.037-0.373,0.097-1.228,0.135-1.903c0.036-0.686,0.124-1.98,0.19-2.876
			c0.066-0.887,0.175-2.451,0.241-3.478c0.229-3.49,0.28-3.843,0.616-4.195c0.251-0.261,0.432-0.448,12.522-1.159l4.979-0.294
			c2.476-0.148,3.249-0.112,3.711,0.269c0.52,0.43,0.479,0.863,0.166,4.24c-0.453,4.887-1.077,13.241-1.309,17.527
			c-0.721,13.355-1.137,35.418-0.812,42.922l0.019,0.404c0.164,3.74,0.188,4.314-1.431,4.449l-0.102,0.01
			c-0.276,0.023-1.282,0.227-2.284,0.479c-0.963,0.243-2.428,0.596-3.255,0.776c-0.818,0.183-2.045,0.465-2.728,0.631
			c-3.759,0.912-5.964,1.375-6.555,1.375l-0.244-0.026c-0.563-0.144-0.609-0.152-5.928-7.463c-1.245-1.709-2.638-3.611-3.093-4.229
			c-0.46-0.617-1.437-1.967-2.169-2.997c-0.771-1.083-1.49-2.064-1.655-2.271c-0.356-0.444-2.865-4.013-4.595-6.513
			c-1.15-1.666-2.729-3.926-3.73-5.35c-0.51-0.719-1.138-1.618-1.396-1.995c-0.26-0.374-1.005-1.437-1.655-2.36
			c-0.653-0.924-1.448-2.049-1.765-2.499l-0.047-0.064c-0.128,1.404-0.262,3.714-0.321,4.771c-0.446,7.647-0.533,10.969-0.489,18.69
			l0.044,7.921l-0.817,0.458c-0.359,0.204-1.239,0.467-1.923,0.619c-1.383,0.31-9.173,2.271-12.823,3.229
			c-2.447,0.644-2.521,0.644-2.609,0.646h-0.006v0.002H391.234z M408.442,22.872l-1.956,0.388
			c-6.606,1.31-12.156,2.595-13.495,3.125c-0.061,0.07-0.319,0.548-0.568,2.961l-0.38,3.672c-0.061,0.598-0.267,2.565-0.335,2.797
			c-0.013,0.077-0.087,0.751-0.162,1.671c-0.115,1.41-0.203,2.44-0.556,6.539c-0.094,1.081-0.435,6.468-0.506,8.003
			c-0.033,0.692-0.088,1.6-0.119,2.014c-0.242,3.127-0.344,18.359-0.151,22.641c0.055,1.199,0.124,2.912,0.152,3.805
			c0.104,3.164,0.442,8.688,0.617,10.019c0.102,0.781,0.243,2.164,0.319,3.084c0.067,0.832,0.146,1.313,0.197,1.544
			c0.412-0.104,1.121-0.285,2.012-0.521c3.659-0.959,11.479-2.929,12.871-3.239c0.719-0.16,1.403-0.394,1.562-0.479l0.134-0.074
			l-0.04-7.134c-0.044-7.759,0.043-11.093,0.491-18.774c0.357-6.189,0.46-6.291,0.727-6.562l0.196-0.196l0.331-0.021
			c0.439,0,0.771,0.299,1.538,1.386c0.314,0.45,1.107,1.573,1.764,2.497c0.654,0.93,1.403,1.996,1.662,2.371
			c0.259,0.374,0.883,1.268,1.39,1.984c1.006,1.428,2.587,3.689,3.739,5.357c2.007,2.901,4.258,6.087,4.538,6.438
			c0.205,0.256,0.969,1.303,1.701,2.332c0.729,1.021,1.695,2.361,2.151,2.977c0.458,0.619,1.854,2.525,3.102,4.238
			c3.221,4.427,4.764,6.527,5.194,6.934c0.346-0.032,1.617-0.231,6.139-1.33c0.688-0.166,1.926-0.452,2.753-0.637
			c0.815-0.182,2.264-0.527,3.216-0.768c0.876-0.223,2.048-0.479,2.495-0.517l0.106-0.009l0.245-0.024
			c0.078-0.362,0.028-1.507-0.036-3.036l-0.02-0.404c-0.328-7.536,0.089-29.666,0.813-43.052c0.229-4.301,0.854-12.68,1.312-17.579
			c0.119-1.291,0.243-2.62,0.228-3.092c-0.236-0.026-1.138-0.054-2.695,0.038l-4.979,0.295c-8.485,0.499-10.922,0.747-11.618,0.851
			c-0.095,0.571-0.192,2.099-0.27,3.257c-0.066,1.029-0.177,2.601-0.243,3.492c-0.067,0.887-0.153,2.169-0.188,2.849
			c-0.039,0.696-0.102,1.578-0.139,1.959c-0.128,1.329-0.421,7.595-0.561,11.97c-0.155,4.729-0.241,4.824-0.429,5.031
			c-0.299,0.317-0.757,0.362-1.171,0.106c-0.536-0.338-3.546-4.242-4.579-5.627c-0.791-1.059-1.88-2.472-2.375-3.087
			c-0.505-0.619-1.095-1.403-1.314-1.747c-0.188-0.292-0.565-0.784-0.819-1.073c-0.488-0.556-1.875-2.521-2.785-3.906
			c-0.135-0.203-0.51-0.74-0.83-1.193l-0.936-1.308c-0.183-0.258-0.604-0.811-0.938-1.232c-0.825-1.037-1.729-2.348-3.223-4.672
			c-1.104-1.725-2.814-4.25-4.253-6.286c-0.327-0.464-0.713-0.849-0.819-0.915L408.442,22.872z M341.787,82.198
			c-0.836,0-1.236-0.072-1.945-0.275c-2.102-0.603-3.363-1.615-3.752-3.014c-0.228-0.819-0.188-2.191,0.08-2.998
			c0.663-1.971,3.65-5.035,6.395-6.563c2.564-1.427,6.146-2.383,8.403-2.217c4.87,0.358,5.6,3.012,5.6,4.563
			c0,1.25-0.388,2.511-1.116,3.644c-0.62,0.962-2.426,2.818-3.516,3.613c-1.609,1.176-4.051,2.336-6.067,2.887
			c-0.724,0.197-1.552,0.291-2.956,0.336C342.444,82.188,342.084,82.198,341.787,82.198z M350.421,68.448
			c-2.055,0-5.02,0.852-7.209,2.066c-2.415,1.344-5.223,4.172-5.776,5.819c-0.187,0.556-0.217,1.651-0.061,2.218
			c0.256,0.92,1.209,1.622,2.834,2.086c0.865,0.248,1.117,0.248,2.659,0.201c1.291-0.041,2.033-0.123,2.646-0.289
			c1.85-0.505,4.164-1.604,5.635-2.677c0.95-0.695,2.646-2.434,3.18-3.261c0.591-0.915,0.903-1.926,0.903-2.92
			c0-1.932-1.47-3.019-4.361-3.229C350.727,68.454,350.576,68.448,350.421,68.448z M23.113,72.131c-0.932,0-1.038-0.773-1.097-1.189
			c-0.091-0.629-0.119-5.965-0.119-9.419c0.001-7.923,0.095-11.638,0.436-17.282c0.066-1.096,0.182-3.055,0.254-4.355
			c0.073-1.309,0.188-2.97,0.249-3.693c0.063-0.724,0.175-2.493,0.25-3.944c0.043-0.834,0.158-2.811,0.291-3.153
			c0.358-0.947,5.216-2.851,5.755-3.037c3.462-1.192,7.188-1.825,10.778-1.825c4.359,0,8.392,0.907,11.659,2.623
			c1.764,0.928,3.929,2.362,4.515,3.326c0.066,0.111,0.147,0.202,0.175,0.226l0,0c0.698,0.48,2.027,3.09,2.042,3.117
			c0.915,1.821,1.543,4.924,1.399,6.916c-0.24,3.412-1.714,7.316-4.15,10.993c-0.248,0.375-0.665,1.017-0.925,1.423
			c-0.792,1.235-3.3,4.137-4.881,5.643c-2.657,2.535-5.944,5.061-9.021,6.928c-4.571,2.771-10.65,5.219-15.862,6.388l-0.196,0.044
			C23.875,72.034,23.44,72.131,23.113,72.131z M24.611,29.652c-0.037,0.305-0.122,1.3-0.193,2.662
			c-0.075,1.464-0.188,3.254-0.252,3.991c-0.063,0.715-0.174,2.359-0.247,3.653c-0.072,1.302-0.188,3.264-0.254,4.36
			c-0.339,5.613-0.433,9.312-0.434,17.202c0,5.017,0.05,8.78,0.096,9.149l0.014,0.099c0.238-0.038,0.592-0.118,1.031-0.217
			l0.195-0.044c5.082-1.14,11.008-3.525,15.465-6.228c2.996-1.817,6.2-4.279,8.791-6.753c1.495-1.426,3.942-4.247,4.678-5.395
			c0.263-0.412,0.687-1.061,0.938-1.439c2.312-3.488,3.707-7.166,3.933-10.352c0.126-1.761-0.452-4.61-1.262-6.223
			c-0.544-1.084-1.339-2.329-1.571-2.599c-0.295-0.182-0.524-0.536-0.595-0.652c-0.316-0.521-1.935-1.753-3.993-2.835
			c-3.077-1.616-6.896-2.471-11.039-2.471c-3.443,0-7.021,0.605-10.343,1.752C27.719,27.956,25.177,29.22,24.611,29.652z
			 M135.456,59.702c-1.226,0-1.284-0.733-1.401-2.193l-0.039-0.475c-0.172-2.043-0.237-3.541-0.334-7.625l-0.089-3.771l1.75-1.692
			c5.104-4.935,10.547-8.679,16.183-11.13c4.419-1.922,9.078-3.089,13.119-3.284c3.313-0.152,5.076,0.68,5.872,2.807
			c0.664,1.771,0.242,4.57-0.979,6.506c-0.092,0.146-0.175,0.288-0.221,0.381c-0.035,0.231-0.252,0.546-1.873,2.894
			c-0.879,1.272-1.514,2.001-2.95,3.386c-2.837,2.737-5.402,4.802-8.074,6.504c-3.853,2.456-7.901,4.41-11.71,5.656l-1.923,0.629
			c-1.228,0.399-2.677,0.769-4.313,1.091c-0.862,0.172-1.997,0.309-2.581,0.313L135.456,59.702z M134.94,46.189l0.074,3.187
			c0.096,4.054,0.16,5.533,0.33,7.545l0.039,0.479c0.03,0.387,0.062,0.756,0.095,0.967l0.405-0.006
			c0.494-0.004,1.563-0.135,2.33-0.285c1.583-0.313,2.98-0.666,4.155-1.051l1.922-0.63c3.705-1.211,7.649-3.118,11.409-5.514
			c2.595-1.653,5.094-3.667,7.865-6.339c1.378-1.328,1.948-1.982,2.777-3.185c0.993-1.438,1.543-2.235,1.666-2.446
			c0.033-0.134,0.126-0.352,0.396-0.78c0.987-1.564,1.374-3.954,0.858-5.326c-0.38-1.018-1.109-1.959-3.851-1.959
			c-0.228,0-0.462,0.006-0.708,0.019c-3.884,0.188-8.377,1.315-12.651,3.176c-5.486,2.387-10.799,6.042-15.786,10.865L134.94,46.189
			z M375.576,41.744c-1.126,0-2.107-0.079-2.767-0.225c-4.074-0.895-7.031-3.592-8.11-7.398c-0.419-1.48-0.417-3.874,0.003-5.451
			c1.03-3.862,3.967-7.072,7.662-8.378c1.657-0.587,2.79-0.767,4.844-0.767c2.443,0.003,3.822,0.281,5.537,1.099
			c2.832,1.353,4.507,3.271,5.432,6.219c0.447,1.423,0.45,4.296,0.007,5.911c-0.636,2.316-2.073,4.595-3.851,6.095
			c-1.225,1.032-3.416,2.148-4.99,2.542C378.459,41.61,377.052,41.744,375.576,41.744z M377.274,20.858
			c-1.97,0-2.954,0.155-4.467,0.69c-3.286,1.162-5.897,4.021-6.816,7.464c-0.354,1.332-0.358,3.504-0.009,4.743
			c0.939,3.319,3.533,5.673,7.114,6.46c0.559,0.122,1.461,0.192,2.479,0.192c1.352,0,2.671-0.12,3.441-0.313
			c1.358-0.341,3.397-1.379,4.453-2.269c1.577-1.332,2.857-3.361,3.425-5.429c0.378-1.369,0.381-3.972,0.008-5.157
			c-0.815-2.601-2.23-4.22-4.733-5.415C380.641,21.099,379.451,20.864,377.274,20.858L377.274,20.858z M375.474,39.242
			c-0.49,0-1.19-0.027-1.733-0.152c-2.014-0.467-3.502-1.371-4.688-2.843c-1.957-2.438-2.087-6.121-0.319-9.169
			c0.734-1.273,2.41-2.896,3.655-3.545c1.507-0.788,2.414-1.026,4.225-1.109c2.885-0.127,4.979,0.617,6.679,2.375
			c1.454,1.506,2.16,3.263,2.158,5.371c-0.009,4.054-2.755,7.556-6.835,8.715C377.833,39.104,376.63,39.242,375.474,39.242z
			 M371.216,26.106c-0.546,0.541-1.038,1.135-1.33,1.639c-1.491,2.574-1.407,5.654,0.207,7.665c1,1.243,2.218,1.978,3.946,2.379
			c0.328,0.076,0.837,0.118,1.435,0.118h0.001c1.025,0,2.114-0.121,2.773-0.309c0.175-0.05,0.346-0.104,0.515-0.163
			c-0.249-0.149-0.634-0.519-1.324-1.424l-1.595-2.083l-0.117-0.151c-0.009,0.111-0.017,0.228-0.023,0.343
			c-0.051,0.712-0.136,1.592-0.2,1.896l-0.201,0.987l-1.625-0.066c-1.313-0.054-1.477-0.21-1.604-0.335
			c-0.633-0.599-0.852-9.922-0.853-10.015C371.216,26.399,371.215,26.244,371.216,26.106z M375.438,32.035
			c0.591,0,0.994,0.469,1.465,1.082l1.596,2.086c0.318,0.417,0.59,0.728,0.764,0.911c0.376-0.198,1.019-0.62,1.408-0.924
			c-0.209-0.248-0.521-0.604-0.923-1.039c-1.483-1.607-1.483-1.748-1.483-2c0-0.28,0.117-0.601,0.973-1.031
			c0.729-0.371,1.064-0.675,1.378-1.248c0.343-0.636,0.441-1.298,0.284-1.867c-0.363-1.296-2.494-2.167-5.305-2.167
			c-1.119,0-2.455,0.168-3.047,0.297c-0.026,1.6,0.332,7.813,0.546,9.421c0.163,0.019,0.382,0.036,0.638,0.046l0.484,0.021
			c0.043-0.289,0.108-0.929,0.156-1.599C374.468,32.659,374.513,32.035,375.438,32.035z M379.875,32.29
			c0.204,0.238,0.49,0.563,0.854,0.958c1.28,1.39,1.457,1.677,1.48,1.894c1.201-1.356,1.901-3.098,1.905-4.976
			c0.002-1.769-0.565-3.181-1.783-4.442c-1.415-1.464-3.206-2.086-5.659-1.968c-1.601,0.073-2.32,0.259-3.633,0.942
			c1.17-0.166,2.528-0.194,2.55-0.194c3.525,0,6.05,1.204,6.593,3.142c0.254,0.903,0.112,1.92-0.396,2.862
			C381.346,31.315,380.826,31.803,379.875,32.29z M95.626,37.484c-0.604,0-1.437-0.014-1.965-0.079
			c-1.944-0.245-4.34-1.011-6.103-1.949c-4.093-2.181-7.66-6.339-9.091-10.597c-0.952-2.836-1.233-6.379-0.735-9.244
			C78.824,9.316,82.788,4.06,88.334,1.549c1.087-0.492,3.2-1.11,4.712-1.379C93.875,0.021,95.225,0,95.955,0
			c1.294,0,3.136,0.074,4.066,0.282c4.521,1.012,8.421,3.584,11.279,7.438c2.35,3.168,3.318,5.951,3.459,9.926
			c0.11,3.125-0.406,6.072-1.495,8.524c-2.607,5.879-7.428,9.718-13.937,11.102C98.645,37.419,96.929,37.484,95.626,37.484z
			 M95.955,1.334c-1.151,0-2.151,0.056-2.675,0.148c-1.397,0.249-3.41,0.835-4.396,1.281c-5.144,2.328-8.82,7.217-9.838,13.08
			c-0.462,2.661-0.198,5.953,0.688,8.591c1.306,3.892,4.703,7.847,8.451,9.843c1.632,0.869,3.846,1.577,5.642,1.804
			c0.354,0.045,1.009,0.069,1.799,0.069c1.438,0,2.942-0.081,3.426-0.184c6.16-1.31,10.532-4.789,12.995-10.338
			c1.006-2.269,1.483-5.012,1.38-7.937c-0.132-3.724-0.998-6.212-3.196-9.178c-2.665-3.594-6.297-5.991-10.499-6.932
			C99.063,1.435,97.545,1.334,95.955,1.334z M374.529,30.897v-1.592c0-0.232,0.008-1.016,0.114-1.307
			c0.223-0.573,0.904-0.646,1.479-0.646c0.59,0,2.396,0.149,2.947,0.813c0.231,0.281,0.32,0.622,0.249,0.959
			c-0.102,0.466-0.485,0.865-1.146,1.188c-0.569,0.279-1.11,0.411-1.928,0.468L374.529,30.897z M375.88,28.697
			c-0.008,0.149-0.017,0.363-0.017,0.609v0.165l0.29-0.02c0.644-0.045,1.019-0.133,1.432-0.335c0.128-0.063,0.223-0.12,0.291-0.169
			c-0.343-0.114-1.095-0.26-1.754-0.26C376.023,28.688,375.943,28.69,375.88,28.697z"/>
		<path style="fill:#FF8000;" d="M173.241,101.631c-2.65-1.142-5.563-2.38-6.476-2.75c-1.438-0.585-6.405-2.677-8.44-3.552
			c-1.488-0.642-6.46-2.854-7.282-3.24c-0.479-0.228-1.712-0.762-2.74-1.188c-1.024-0.426-3.154-1.321-4.729-1.989
			c-2.925-1.242-5.746-2.399-6.831-2.808c-0.965-0.36-0.993-0.278-0.896,2.683c0.043,1.336,0.113,3.028,0.155,3.763l0.074,1.336
			l-0.546,0.231c-0.413,0.174-6.091,1.651-8.016,2.084c-0.138,0.03-0.894,0.224-1.682,0.428c-3.348,0.865-9.698,2.365-10.018,2.365
			c-0.107,0-0.247-0.127-0.307-0.285c-0.168-0.44-0.467-10.217-0.499-16.383c-0.009-1.604-0.039-2.947-0.063-2.988
			c-0.026-0.041-0.086-2.624-0.135-5.739c-0.048-3.115-0.106-5.699-0.132-5.74c-0.026-0.041-0.053-1.469-0.061-3.174
			c-0.008-1.705-0.063-4.387-0.118-5.963c-0.057-1.574-0.14-4.236-0.182-5.914c-0.041-1.679-0.102-3.75-0.129-4.605
			s-0.118-3.976-0.202-6.931l-0.15-5.376l1.065-1.223c2.125-2.439,6.597-6.675,10.189-9.653c3.598-2.981,9.313-6.996,12.189-8.562
			c0.377-0.205,1.134-0.627,1.682-0.938c7.659-4.35,16.571-7.16,23.89-7.532c3.671-0.187,7.523,0.076,10.284,0.702
			c2.945,0.668,7.441,2.541,9.599,3.997c4.596,3.105,7.771,7.442,8.948,12.217c0.271,1.104,0.282,1.318,0.214,4.107
			c-0.105,4.152-0.301,5.34-1.525,9.293c-0.85,2.742-1.087,3.34-2.372,5.976c-2.72,5.583-7.089,11.285-12.467,16.272
			c-2.606,2.417-10.064,7.606-14.997,10.44c-0.53,0.303-0.995,0.635-1.036,0.736c-0.116,0.295,0.412,0.629,3.36,2.141
			c1.51,0.771,3.119,1.604,3.578,1.844c1.111,0.584,4.216,2.18,7.196,3.703c6.12,3.125,8.687,4.451,9.089,4.699
			c0.238,0.146,1.136,0.607,1.991,1.023c2.238,1.088,2.165,0.922,1.266,2.854c-0.408,0.881-1.288,2.721-1.954,4.09
			s-1.728,3.555-2.356,4.854c-3.133,6.452-3.313,6.804-3.542,6.775C178.092,103.712,175.89,102.772,173.241,101.631z
			 M177.336,99.585c0.229-0.252,1.734-3.243,4.506-8.957c1.1-2.26,1.208-2.737,0.729-3.174c-0.276-0.25-2.173-1.244-8.934-4.677
			c-1.883-0.954-3.479-1.778-3.549-1.832c-0.067-0.051-1.69-0.893-3.608-1.868c-1.918-0.979-3.626-1.875-3.798-1.994
			c-0.172-0.123-0.982-0.571-1.806-1.002c-0.822-0.43-1.634-0.877-1.806-0.994c-0.17-0.116-0.675-0.396-1.12-0.618
			c-0.443-0.224-1.229-0.66-1.741-0.972c-2.499-1.511-2.953-1.905-2.397-2.102c0.118-0.043,0.329-0.176,0.467-0.294
			c0.139-0.121,0.978-0.595,1.867-1.055c4.872-2.516,6.653-3.576,10.332-6.15c0.821-0.573,1.967-1.415,2.539-1.864
			c0.574-0.453,1.331-1.041,1.682-1.312c0.351-0.268,0.692-0.553,0.761-0.633s0.685-0.624,1.369-1.207
			c2.063-1.76,5.526-5.457,7.096-7.579c0.139-0.185,0.564-0.749,0.949-1.253c3.596-4.714,7.016-12.402,7.779-17.489
			c0.325-2.166,0.067-5.234-0.642-7.641c-0.335-1.135-1.371-3.111-2.222-4.234c-1.247-1.647-3.326-3.698-4.496-4.437
			c-0.273-0.174-1.029-0.655-1.681-1.072c-1.259-0.806-2.984-1.551-5.415-2.339c-1.804-0.584-2.694-0.796-4.487-1.066
			c-3.152-0.473-9.609,0.256-15.121,1.708c-3.201,0.843-5.743,1.701-8.341,2.815c-5.396,2.313-9.252,4.458-14.717,8.184
			c-2.674,1.823-7.972,6.081-10.619,8.534c-2.288,2.122-4.045,3.896-4.053,4.096c-0.026,0.635,0.021,4.524,0.07,5.737
			c0.031,0.788,0.087,2.833,0.121,4.544c0.035,1.712,0.094,4.542,0.129,6.288c0.036,1.743,0.117,4.938,0.18,7.096
			c0.063,2.156,0.109,4.004,0.104,4.106c-0.005,0.104,0.056,2.289,0.132,4.854c0.142,4.737,0.217,7.454,0.328,11.828
			c0.313,12.207,0.359,13.258,0.588,13.539c0.07,0.085,0.341,0.154,0.6,0.154c0.484,0,4.306-0.74,5.411-1.047
			c1.358-0.379,5.005-1.354,5.417-1.445c0.998-0.227,2.321-0.647,2.599-0.828l0.297-0.192l-0.088-5.022
			c-0.049-2.765-0.055-5.079-0.014-5.146c0.082-0.136,0.98,0.146,2.061,0.648c0.376,0.175,1.104,0.485,1.619,0.69
			c0.513,0.205,2.139,0.89,3.61,1.519c1.473,0.63,3.517,1.494,4.544,1.921c1.025,0.431,2.063,0.864,2.303,0.972
			c0.24,0.106,1.836,0.777,3.549,1.494c6.148,2.569,7.733,3.236,8.668,3.651c0.522,0.23,0.986,0.421,1.032,0.421
			c0.044,0,0.626,0.244,1.291,0.543c0.664,0.297,1.825,0.798,2.578,1.11c0.753,0.312,1.93,0.804,2.614,1.088
			c0.685,0.285,1.412,0.603,1.618,0.706c0.205,0.104,0.652,0.286,0.995,0.407c0.344,0.121,1.333,0.537,2.202,0.922
			c0.87,0.386,1.626,0.701,1.682,0.703c0.057,0,0.27,0.088,0.475,0.195c0.206,0.108,0.625,0.303,0.935,0.43
			c0.31,0.127,0.896,0.373,1.308,0.547C176.742,99.936,177.012,99.942,177.336,99.585z M132.254,62.417
			c-0.037-0.115-0.12-0.715-0.188-1.33c-0.113-1.053-0.166-2.437-0.323-8.84c-0.035-1.438-0.128-3.688-0.203-5
			c-0.139-2.347-0.137-2.392,0.127-2.819c0.148-0.239,0.451-0.574,0.672-0.746c0.224-0.171,0.72-0.612,1.107-0.978
			c0.385-0.367,1.308-1.228,2.049-1.912c0.741-0.686,1.63-1.517,1.975-1.849c0.844-0.811,2.977-2.534,3.534-2.857
			c0.249-0.144,0.62-0.381,0.825-0.529c0.206-0.148,0.934-0.59,1.619-0.981c0.685-0.393,1.665-0.968,2.18-1.279
			c1.037-0.629,4.49-2.382,6.05-3.072c2.112-0.935,5.41-2.024,7.458-2.465c4.495-0.968,4.16-0.944,8.444-0.608
			c1.466,0.115,1.779,0.191,2.51,0.603c0.139,0.077,0.518,0.233,0.841,0.352c0.442,0.158,0.697,0.358,1.006,0.786
			c1.116,1.557,1.452,2.59,1.452,4.454c0,1.938-0.49,3.51-2.176,6.952c-1.047,2.142-1.62,2.951-3.739,5.292
			c-1.71,1.886-2.213,2.366-2.485,2.366c-0.104,0-0.188,0.08-0.188,0.177c0,0.187-1.687,1.754-2.864,2.661
			c-0.375,0.289-1.187,0.918-1.801,1.396c-0.612,0.479-1.182,0.869-1.26,0.869c-0.081,0-0.215,0.083-0.298,0.186
			c-0.44,0.529-4.362,2.875-6.604,3.943c-0.237,0.114-0.774,0.375-1.192,0.58c-0.417,0.205-1.146,0.521-1.618,0.704
			c-0.473,0.184-0.971,0.384-1.108,0.445c-0.479,0.223-5.206,1.744-7.469,2.406c-2.219,0.647-5.22,1.188-6.997,1.258
			C132.477,62.622,132.311,62.603,132.254,62.417z M137.076,59.096c2.754-0.361,8.012-1.943,11.476-3.453
			c1.407-0.611,4.49-2.171,5.23-2.642c0.343-0.219,0.722-0.436,0.846-0.48c0.33-0.124,3.511-2.268,4.444-2.995
			c2.822-2.199,6.139-5.29,7.231-6.739c1.892-2.509,3.128-4.61,3.663-6.226c0.633-1.9,0.382-4.134-0.583-5.233
			c-0.48-0.549-1.413-0.978-2.677-1.233c-0.936-0.188-1.158-0.19-2.801-0.01c-4.272,0.467-7.403,1.26-11.41,2.887
			c-0.912,0.371-1.754,0.724-1.868,0.786c-0.114,0.062-0.377,0.192-0.582,0.288c-3.672,1.729-9.344,5.626-12.655,8.694
			c-0.248,0.23-0.967,0.896-1.596,1.479c-1.794,1.664-1.674,1.231-1.571,5.646c0.096,4.037,0.132,4.869,0.331,7.362
			c0.112,1.383,0.167,1.648,0.387,1.836C135.252,59.327,135.296,59.329,137.076,59.096L137.076,59.096z M336.018,102.174
			c-2.866-0.39-5.979-1.189-7.869-2.023c-1.03-0.456-3.884-2.072-5.303-3.011c-1.337-0.882-3.585-2.998-4.28-4.029
			c-0.658-0.974-2.102-4.13-2.692-5.896c-0.306-0.908-0.637-2.172-0.734-2.809c-0.198-1.281-0.394-4.531-0.352-5.891
			c0.079-2.494,1.142-6.607,2.7-10.458c0.431-1.059,1.814-3.619,2.329-4.296c0.13-0.17,0.521-0.701,0.875-1.183
			c0.761-1.032,2.373-2.843,3.382-3.791c0.493-0.465,0.824-0.682,1.055-0.687c0.27-0.004,0.327-0.059,0.297-0.27
			c-0.022-0.188,0.146-0.424,0.563-0.791c0.582-0.516,2.398-1.813,3.271-2.336c2.345-1.41,4.985-2.752,6.66-3.386
			c0.411-0.151,0.943-0.356,1.183-0.45c1.743-0.688,5.517-1.707,8.029-2.172c1.538-0.283,1.871-0.434,1.738-0.778
			c-0.042-0.109-0.678-0.708-1.412-1.332c-4.865-4.128-9.688-7.021-14.638-8.787c-1.487-0.531-2.726-1.029-3.023-1.219
			c-0.214-0.138-0.195-0.845,0.043-1.619c0.289-0.938,2.009-6.221,2.358-7.243c0.162-0.479,0.554-1.74,0.867-2.801
			c0.979-3.313,1.453-4.778,1.65-5.078c0.22-0.338,0.062-0.356,3.016,0.369c5.079,1.248,10.14,3.405,13.694,5.843
			c1.765,1.207,2.133,1.476,3.299,2.396c5.402,4.254,11.046,10.296,15.193,16.265c1.917,2.76,4.225,6.41,5.146,8.145
			c0.215,0.404,0.449,0.808,0.521,0.894c0.493,0.596,3.557,6.774,4.623,9.326c1.021,2.443,2.653,7.092,3.191,9.088
			c0.358,1.342,1.104,3.943,2.009,7.035c0.768,2.616,2.406,9.082,2.558,10.084c0.047,0.308,0.163,0.864,0.261,1.238
			c0.096,0.374,0.173,0.863,0.173,1.086c0,0.498-0.19,0.61-2.305,1.356c-1.881,0.664-4.208,1.574-7.78,3.043
			c-1.54,0.632-3.331,1.367-3.981,1.636c-3.744,1.537-4.538,1.811-4.67,1.6c-0.042-0.069-0.188-0.758-0.32-1.525
			c-0.214-1.235-0.848-4.081-1.103-4.948c-0.051-0.17-0.176-0.326-0.275-0.346c-0.103-0.021-0.63,0.309-1.174,0.729
			c-6.104,4.729-12.914,7.747-19.974,8.848C342.74,102.325,337.839,102.421,336.018,102.174z M342.517,99.183
			c3.701-0.188,8.276-1.37,12.638-3.259c0.719-0.313,1.36-0.608,1.432-0.66c0.068-0.052,0.544-0.31,1.058-0.572
			c1.871-0.963,4.568-2.639,5.978-3.713c0.445-0.341,1.286-0.98,1.868-1.427c0.581-0.445,1.207-0.945,1.391-1.112
			c0.184-0.166,0.4-0.279,0.483-0.252c0.222,0.074,0.646,1.425,1.237,3.938c0.729,3.086,0.846,3.474,1.059,3.557
			c0.302,0.115,2.345-0.6,6.475-2.262c5.636-2.271,6.618-2.74,6.735-3.211c0.115-0.451,0.015-1.146-0.571-3.979
			c-0.658-3.188-0.923-4.242-1.932-7.713c-0.532-1.834-3.163-9.819-3.607-10.956c-1.211-3.086-1.754-4.44-1.996-4.979
			c-2.479-5.485-3.646-7.807-5.688-11.326c-0.991-1.715-4.356-6.734-5.171-7.72c-0.06-0.068-0.271-0.349-0.476-0.622
			c-0.203-0.273-0.41-0.517-0.46-0.538c-0.048-0.022-0.299-0.331-0.556-0.686c-0.922-1.268-2.748-3.296-5.019-5.568
			c-3.018-3.026-4.847-4.598-7.408-6.36c-0.614-0.425-1.39-0.959-1.715-1.188c-0.688-0.484-4.177-2.443-5.218-2.933
			c-2.248-1.053-5.438-2.212-7.478-2.713c-1.067-0.262-1.235-0.275-1.396-0.115c-0.262,0.263-0.729,1.672-3.26,9.803
			c-0.24,0.771-0.419,1.526-0.396,1.679c0.047,0.313,0.528,0.592,1.971,1.142c2.223,0.849,6.338,2.9,7.336,3.661
			c0.245,0.187,0.652,0.434,0.908,0.549c0.789,0.359,3.709,2.447,5.015,3.588c1.317,1.148,3.463,3.289,3.789,3.779
			c0.106,0.16,0.514,0.704,0.901,1.208c0.414,0.539,0.724,1.072,0.746,1.291c0.036,0.348,0.002,0.383-0.521,0.521
			c-0.308,0.079-0.812,0.149-1.12,0.154c-1.367,0.022-7.153,1.583-9.835,2.649c-3.338,1.328-5.816,2.604-7.906,4.076
			c-2.4,1.688-2.621,1.854-3.548,2.688c-4.862,4.359-7.834,8.597-9.462,13.496c-1.542,4.641-1.398,10.156,0.374,14.512
			c1.407,3.457,4.12,6.574,7.133,8.199c0.789,0.426,1.236,0.626,3.141,1.408c1.743,0.719,4.001,1.32,6.657,1.779
			c0.826,0.144,4.221,0.359,4.672,0.303C340.91,99.273,341.694,99.225,342.517,99.183z M338.842,84.782
			c-1.575-0.151-2.194-0.313-3.313-0.854c-1.876-0.906-2.998-2.472-3.123-4.354c-0.052-0.766-0.001-1.16,0.275-2.181
			c0.439-1.61,1.315-3.315,2.109-4.112c0.141-0.141,0.507-0.551,0.814-0.91c0.597-0.695,2.24-2.07,3.668-3.063
			c1.026-0.715,3.062-1.936,3.228-1.936c0.063,0,0.484-0.176,0.938-0.391c1.338-0.632,2.378-0.956,4.897-1.531
			c1.425-0.324,1.583-0.342,3.238-0.341c2.248,0.002,4.493,0.495,5.667,1.248c0.55,0.354,1.63,1.479,1.983,2.065
			c0.607,1.012,0.69,1.34,0.607,2.405c-0.145,1.892-0.982,3.972-2.221,5.509c-2.045,2.543-4.706,4.614-7.951,6.196
			c-1.781,0.866-4.586,1.836-5.808,2.004c-0.466,0.063-1.065,0.175-1.341,0.242C341.941,84.928,340.37,84.926,338.842,84.782z
			 M345.727,81.313c2.882-0.771,5.531-2.25,7.5-4.182c2.009-1.968,2.799-3.48,2.799-5.354c0-1.305-0.174-1.716-1.117-2.672
			c-0.596-0.604-0.826-0.741-1.707-1.024c-1.523-0.494-3.091-0.563-4.833-0.215c-3.246,0.649-5.409,1.604-7.593,3.346
			c-3.413,2.722-4.854,5.188-4.248,7.271c0.339,1.166,0.881,1.836,1.896,2.345c0.779,0.391,2.241,0.803,3.161,0.896
			C342.337,81.796,344.841,81.551,345.727,81.313z M191.749,101.061c-0.131-0.201-0.18-0.479-0.146-0.833
			c0.029-0.294-0.026-1.993-0.128-3.776c-0.141-2.537-0.165-5.291-0.11-12.645c0.069-9.631,0.131-11.612,0.568-18.734
			c0.396-6.438,0.681-9.947,1.184-14.566c0.097-0.891,0.21-2.012,0.252-2.49c0.088-1.014,0.394-3.722,0.562-4.979
			c0.064-0.479,0.206-1.543,0.315-2.365c0.566-4.29,0.953-6.606,1.12-6.733c0.196-0.152,1.161-0.327,3.42-0.615
			c0.855-0.11,1.838-0.256,2.179-0.324c0.343-0.068,1.016-0.171,1.494-0.229c1.702-0.203,7.59-1.069,8.591-1.265
			c0.343-0.067,1.159-0.155,1.816-0.195c1.058-0.064,1.202-0.049,1.274,0.143c0.047,0.12,0.063,0.252,0.032,0.298
			c-0.028,0.045-0.087,0.67-0.132,1.389c-0.086,1.398-0.239,3.412-0.438,5.728c-0.365,4.279-0.783,11.302-0.692,11.664
			c0.135,0.538,0.58,0.346,2.197-0.943c1.807-1.443,6.124-4.896,7.021-5.613c0.671-0.536,2.243-1.783,4.004-3.173
			c0.604-0.478,1.354-1.078,1.66-1.332c0.307-0.255,1.456-1.168,2.552-2.029c1.097-0.86,2.44-1.925,2.988-2.363
			c0.547-0.44,1.667-1.331,2.489-1.98c1.771-1.403,2.662-2.118,3.278-2.642c0.251-0.212,1.492-1.217,2.76-2.231
			s2.584-2.08,2.927-2.366c1.244-1.04,2.299-1.803,2.489-1.803c0.205,0,0.998,1.188,3.986,5.977
			c0.534,0.855,1.149,1.836,1.366,2.179c0.939,1.478,1.909,3.004,3.2,5.041c0.76,1.199,1.534,2.515,1.719,2.926
			c0.188,0.411,0.457,0.854,0.604,0.984c0.533,0.477,0.37,0.729-1.137,1.764c-1.598,1.095-6.81,5-15.593,11.685
			c-5.124,3.9-5.853,4.431-6.109,4.431c-0.185,0-0.3,0.096-0.348,0.291c-0.04,0.16-0.351,0.481-0.688,0.715
			c-0.339,0.233-1.847,1.35-3.35,2.479s-3.663,2.741-4.803,3.581c-1.137,0.84-2.068,1.605-2.068,1.703
			c0,0.096,0.237,0.368,0.528,0.603c0.524,0.422,3.188,2.229,4.549,3.092c0.394,0.246,1.719,1.099,2.951,1.895
			c2.164,1.396,4.477,2.845,5.825,3.646c0.356,0.213,1.854,1.129,3.326,2.041c4.551,2.813,4.784,2.955,5.07,3.103
			c0.357,0.186,0.495,0.714,0.275,1.059c-0.092,0.146-0.514,0.879-0.938,1.631c-0.422,0.754-1.102,1.957-1.511,2.678
			c-1.933,3.402-3.18,5.636-4.55,8.154c-0.821,1.506-1.595,2.847-1.72,2.979c-0.227,0.236-0.253,0.229-1.76-0.522
			c-1.932-0.967-3.97-2.045-6.51-3.447c-1.096-0.604-2.775-1.518-3.734-2.026c-0.958-0.511-1.8-0.974-1.867-1.025
			c-0.069-0.056-0.573-0.338-1.121-0.631c-2.39-1.273-7.419-4.162-9.649-5.539c-1.472-0.91-1.961-1.132-2.13-0.961
			c-0.27,0.268-0.603,3.877-0.979,10.604c-0.076,1.377-0.168,2.097-0.275,2.201c-0.36,0.35-6.562,1.871-12.36,3.029
			c-1.026,0.203-2.541,0.516-3.361,0.688C192.235,101.439,191.998,101.44,191.749,101.061z M197.417,97.32
			c5.666-1.17,8.807-1.944,9.868-2.438c0.46-0.215,0.518-0.565,0.657-4.039c0.036-0.959,0.147-3.115,0.245-4.793
			c0.098-1.68,0.211-3.752,0.252-4.607c0.077-1.627,0.295-2.391,0.696-2.467c0.199-0.035,3.192,1.91,3.629,2.361
			c0.122,0.125,0.272,0.229,0.333,0.229c0.063,0,0.552,0.287,1.086,0.643c0.997,0.656,2.276,1.484,3.864,2.512
			c0.494,0.32,0.933,0.582,0.975,0.582c0.041,0,0.309,0.158,0.594,0.355c0.708,0.48,2.245,1.4,4.565,2.729
			c0.241,0.136,1.313,0.753,2.385,1.37c1.068,0.614,2.414,1.36,2.986,1.655c0.572,0.293,1.238,0.655,1.478,0.804
			c1.334,0.817,5.417,2.807,5.695,2.771c0.242-0.028,0.448-0.27,0.937-1.096c0.343-0.582,0.917-1.534,1.275-2.117
			c0.36-0.582,0.811-1.364,1.002-1.741c0.188-0.378,0.467-0.854,0.615-1.06c0.258-0.354,0.919-1.57,2.131-3.92
			c0.299-0.583,0.545-1.211,0.545-1.395c0-0.408-0.839-1.089-2.613-2.117c-0.65-0.375-1.464-0.854-1.807-1.061
			c-0.343-0.205-1.322-0.787-2.179-1.294c-0.855-0.507-1.815-1.089-2.135-1.296c-0.317-0.203-1.458-0.935-2.534-1.617
			c-2.818-1.795-4.278-2.736-4.918-3.174c-0.308-0.211-1.176-0.79-1.929-1.289c-0.753-0.499-1.622-1.078-1.931-1.287
			c-0.309-0.208-1.009-0.678-1.556-1.042c-1.35-0.899-2.18-1.606-2.18-1.858c0-0.217,0.659-0.807,1.309-1.168
			c0.204-0.114,0.792-0.545,1.308-0.959c0.513-0.412,1.24-0.98,1.617-1.264c0.376-0.281,1.771-1.33,3.096-2.326
			c1.322-0.998,2.901-2.182,3.505-2.625c2.026-1.496,7.885-5.906,9.318-7.018c0.369-0.283,0.765-0.572,0.88-0.642
			c0.115-0.067,0.487-0.353,0.824-0.627c0.339-0.276,0.882-0.695,1.208-0.935c0.328-0.235,1.181-0.881,1.895-1.428
			c0.714-0.547,1.649-1.258,2.083-1.579c0.432-0.322,1.26-0.95,1.843-1.394c0.582-0.446,1.281-0.975,1.556-1.176
			c1.548-1.136,4.379-3.333,4.508-3.5c0.086-0.104,0.153-0.306,0.153-0.442c0.002-0.208-1.076-2.164-2.398-4.357
			c-3.218-5.333-5.152-8.155-5.592-8.155c-0.261,0-0.834,0.401-2.665,1.865c-0.558,0.447-1.453,1.156-1.991,1.578
			c-0.538,0.422-2.164,1.709-3.614,2.864c-1.451,1.153-3.632,2.882-4.848,3.841c-1.216,0.958-2.915,2.303-3.778,2.987
			c-0.864,0.685-2.21,1.749-2.993,2.364c-1.585,1.248-3.414,2.704-3.796,3.021c-0.366,0.305-1.927,1.541-3.731,2.955
			c-0.874,0.686-1.854,1.47-2.18,1.744c-0.324,0.271-1.021,0.834-1.553,1.244c-0.53,0.412-1.616,1.277-2.415,1.93
			c-1.472,1.201-2.407,1.867-2.62,1.867c-0.429,0-0.286-6.164,0.361-15.812c0.283-4.22,0.296-4.712,0.113-4.93
			c-0.151-0.183-0.384-0.198-2.041-0.125c-1.028,0.046-2.123,0.11-2.431,0.142c-0.309,0.031-1.514,0.146-2.677,0.252
			c-2.063,0.188-5.382,0.617-5.82,0.751c-0.336,0.103-0.428,0.375-0.642,1.917c-0.11,0.788-0.231,1.656-0.271,1.93
			c-0.268,1.888-1.094,10.233-1.229,12.449c-0.044,0.687-0.13,1.806-0.194,2.489c-0.063,0.687-0.175,2.197-0.246,3.361
			c-0.074,1.164-0.156,2.396-0.187,2.738c-0.028,0.344-0.112,2.022-0.184,3.734c-0.07,1.711-0.155,3.699-0.188,4.419
			c-0.034,0.72-0.118,2.849-0.188,4.73c-0.068,1.884-0.154,4.096-0.19,4.917c-0.116,2.678-0.175,17.166-0.07,17.784
			c0.055,0.334,0.18,0.653,0.274,0.716c0.096,0.061,0.174,0.107,0.174,0.107C194.741,97.872,195.944,97.626,197.417,97.32z
			 M234.205,58.411l-0.055-0.125l-0.133,0.125l0.056,0.123L234.205,58.411z M252.318,34.25c0-0.063-0.082-0.116-0.188-0.116
			c-0.191,0-0.247,0.147-0.105,0.288C252.124,34.52,252.318,34.408,252.318,34.25z M267.632,100.922
			c-2.255-0.235-4.942-0.782-6.391-1.302c-1.437-0.519-3.255-1.379-3.996-1.896c-2.394-1.664-4.396-3.473-5.537-4.994
			c-0.527-0.7-2.096-3.762-2.794-5.446c-1.115-2.699-1.563-4.476-1.882-7.464c-0.225-2.104-0.239-3.278-0.063-5.165
			c0.443-4.789,1.652-8.978,3.871-13.408c0.469-0.938,1.05-2.017,1.29-2.394c0.242-0.375,0.438-0.711,0.438-0.747
			c0-0.083,1.783-2.697,2.312-3.392c0.804-1.055,2.615-3.225,3.021-3.621c0.624-0.611,0.83-0.544,1.889,0.609
			c1.31,1.424,3.219,3.435,6.473,6.814c1.542,1.602,2.915,3.059,3.053,3.236c0.137,0.178,0.662,0.717,1.168,1.194
			c1.006,0.954,2.131,2.355,2.131,2.653c0,0.104-0.75,0.949-1.669,1.88c-1.884,1.907-2.229,2.305-2.776,3.186
			c-0.959,1.543-1.398,3.16-1.403,5.144c-0.002,1.149,0.039,1.387,0.395,2.283c0.55,1.389,1.072,2.214,1.672,2.635
			c0.687,0.479,3.058,1.156,4.71,1.344c1.015,0.112,1.653,0.114,2.721,0.006c1.547-0.16,3.469-0.603,3.947-0.904
			c0.171-0.109,0.787-0.447,1.37-0.753c1.188-0.622,2.254-1.407,3.174-2.345c0.344-0.348,0.949-0.951,1.352-1.344
			c1.469-1.438,3.182-3.658,4.097-5.314c1.047-1.899,1.514-2.936,2.294-5.092c0.372-1.024,1.01-3.807,1.161-5.058
			c0.104-0.858,0.225-1.356,0.348-1.458c0.138-0.109,0.151-0.193,0.054-0.313c-0.074-0.09-0.146-0.84-0.164-1.717
			c-0.063-3.392-0.791-8.087-2.596-16.806c-0.581-2.802-0.956-4.241-1.162-4.447c-0.171-0.169-0.293-0.167-1.166,0.016
			c-3.744,0.785-10.691,3.18-14.571,5.021c-0.538,0.256-0.703,0.162-0.959-0.547c-0.12-0.332-0.349-0.884-0.506-1.225
			c-0.157-0.343-0.355-0.819-0.439-1.061c-0.085-0.238-0.236-0.619-0.335-0.847c-0.102-0.226-0.312-0.758-0.47-1.183
			c-0.157-0.426-0.688-1.751-1.177-2.95c-0.489-1.198-1.288-3.188-1.771-4.419c-0.486-1.232-0.993-2.521-1.127-2.864
			c-0.137-0.342-0.351-0.846-0.477-1.12c-0.126-0.272-0.293-0.75-0.372-1.059c-0.08-0.309-0.205-0.772-0.279-1.031
			c-0.081-0.285-0.091-0.509-0.021-0.57c0.163-0.142,1.399-0.515,1.718-0.519c0.146-0.001,0.881-0.168,1.635-0.371
			c3.515-0.944,5.341-1.412,6.659-1.701c0.787-0.172,1.938-0.425,2.554-0.56c0.615-0.137,1.541-0.319,2.055-0.409
			s1.773-0.313,2.801-0.493c5.723-1.01,7.034-1.176,12.387-1.571c5.537-0.406,7.638-0.488,12.639-0.491
			c4.785-0.004,8.591,0.137,11.621,0.427c2.313,0.222,2.2,0.059,1.956,2.816c-0.769,8.633-1.43,14.199-1.736,14.62
			c-0.129,0.179-0.253,0.178-1.361-0.001c-3.255-0.522-9.809-0.779-9.957-0.393c-0.036,0.094,0.044,0.556,0.177,1.028
			c2.805,9.998,3.853,16.9,3.685,24.264c-0.07,3.039-0.135,3.803-0.538,6.35c-0.229,1.455-1.043,4.769-1.47,5.992
			c-1.559,4.46-2.965,7.529-4.634,10.1c-3.984,6.138-9.545,11.261-15.778,14.537c-2.784,1.466-4.871,2.308-8.044,3.247
			c-1.594,0.473-4.732,1.116-5.977,1.227c-0.444,0.041-1.256,0.129-1.802,0.194C273.686,101.157,269.527,101.118,267.632,100.922z
			 M275.662,98.001c0.959-0.144,1.996-0.313,2.304-0.379c0.308-0.067,0.862-0.178,1.233-0.242c0.371-0.066,0.931-0.202,1.246-0.303
			c5.591-1.769,8.051-2.813,11.07-4.701c0.643-0.399,1.188-0.728,1.219-0.728c0.137,0,3.967-2.938,4.963-3.809
			c2.206-1.924,4.066-3.934,4.976-5.367c0.467-0.738,0.977-1.541,1.128-1.779c3.823-5.971,5.313-9.413,6.029-13.944
			c0.229-1.461,0.309-2.205,0.636-6.101c0.118-1.416,0.069-7.989-0.063-8.204c-0.029-0.048-0.086-0.531-0.127-1.074
			c-0.402-5.38-1.572-11.048-3.562-17.237c-0.315-0.992-0.552-1.877-0.52-1.965c0.03-0.089,0.231-0.254,0.446-0.369
			c0.313-0.165,0.853-0.217,2.693-0.258c2.095-0.047,7.433,0.139,8.651,0.301c0.812,0.107,0.922-0.061,1.132-1.696
			c0.369-2.905,0.744-6.348,0.859-7.901c0.034-0.479,0.096-1.208,0.133-1.618c0.102-1.123,0.029-1.177-1.822-1.382
			c-2.566-0.286-5.818-0.423-9.888-0.419c-2.124,0.001-4.226,0.025-4.668,0.052c-0.446,0.026-1.398,0.084-2.116,0.126
			c-4.185,0.248-8.909,0.72-13.011,1.299c-0.893,0.126-1.787,0.227-1.992,0.227c-0.205-0.003-0.737,0.086-1.184,0.192
			c-0.445,0.108-1.791,0.376-2.988,0.594c-2.779,0.508-4.438,0.866-8.899,1.92c-1.232,0.291-2.565,0.604-2.962,0.693
			s-0.816,0.235-0.935,0.321c-0.2,0.146-0.198,0.19,0.017,0.757c0.126,0.329,0.382,1.02,0.568,1.534
			c0.188,0.513,0.469,1.213,0.624,1.556c0.156,0.343,0.633,1.463,1.061,2.491c1.8,4.342,2.994,7.052,3.207,7.28
			c0.278,0.298,0.502,0.267,2.403-0.336c2.44-0.775,5.959-1.911,6.658-2.154c2.195-0.756,6.616-1.904,7.393-1.917l0.604-0.011
			l0.244,0.62c0.135,0.341,0.291,0.845,0.348,1.12c0.059,0.276,0.281,1.285,0.496,2.244c0.219,0.959,0.452,2.023,0.522,2.366
			c0.071,0.341,0.174,0.817,0.229,1.057c0.629,2.808,1.301,6.792,1.614,9.586c0.146,1.269,0.323,2.78,0.397,3.361
			c0.195,1.516,0.277,8.402,0.111,9.23c-0.687,3.391-1.938,6.807-3.26,8.885c-0.304,0.479-0.619,1.021-0.699,1.207
			c-0.306,0.697-1.811,2.854-2.22,3.181c-0.233,0.188-0.594,0.602-0.8,0.919c-0.206,0.316-0.764,0.892-1.235,1.271
			c-0.471,0.38-1.063,0.945-1.315,1.254c-0.416,0.508-0.84,0.838-1.645,1.293c-0.158,0.09-0.289,0.209-0.289,0.266
			c0,0.105-1.225,0.855-2.203,1.353c-0.978,0.497-3.746,1.394-5.037,1.635c-1.886,0.351-2.237,0.385-4.087,0.396
			c-1.536,0.012-1.756-0.019-2.552-0.32c-0.479-0.186-1.087-0.414-1.348-0.514c-1.586-0.595-3.209-1.889-3.887-3.096
			c-0.235-0.425-0.433-0.916-0.433-1.09c0-0.173-0.079-0.382-0.178-0.464c-0.223-0.185-0.314-0.592-0.443-1.974
			c-0.12-1.28,0.038-2.979,0.383-4.153c0.422-1.438,1.603-3.529,3.029-5.379c1.168-1.511,1.317-1.735,1.317-1.979
			c0-0.128-1.167-1.451-2.64-2.992c-5.671-5.938-7.506-7.827-7.71-7.938c-0.688-0.368-2.067,1.093-4.527,4.8
			c-0.671,1.014-1.88,3.295-2.699,5.106c-0.904,1.991-1.375,3.93-1.917,7.904c-0.29,2.124-0.321,2.676-0.254,4.419
			c0.125,3.235,0.577,6.076,1.319,8.293c1.662,4.961,5.041,8.769,9.837,11.078c1.008,0.486,3.463,1.229,4.979,1.506
			C268.466,98.415,272.582,98.458,275.662,98.001z M10.736,97.174c-0.272-0.021-1.618-0.104-2.988-0.181
			c-1.369-0.08-3.186-0.244-4.036-0.362c-2.008-0.281-2.005-0.279-1.985-2.12c0.007-0.739-0.015-1.393-0.05-1.45
			c-0.035-0.057-0.099-0.941-0.142-1.971c-0.042-1.027-0.104-2.177-0.138-2.554c-0.099-1.091-0.293-6.362-0.372-10.021
			c-0.04-1.849-0.104-3.495-0.138-3.658c-0.12-0.57-0.061-25.389,0.07-29.146c0.337-9.704,0.401-11.236,0.691-16.559
			c0.1-1.813,0.237-4.418,0.308-5.788c0.396-7.658,0.522-9.332,0.731-9.573c0.512-0.593,3.143-2.117,6.801-3.938
			c4.039-2.013,5.354-2.545,9.712-3.929c0.959-0.304,1.996-0.633,2.304-0.731c0.994-0.315,4.136-1.032,5.415-1.235
			c2.653-0.419,7.579-0.835,9.71-0.818c4.453,0.039,8.888,0.58,12.824,1.563c4.72,1.181,9.34,3.299,13.805,6.325
			c4.925,3.341,9.253,8.106,12.772,14.063c1.015,1.72,1.458,2.691,2.244,4.915c1.455,4.125,2.16,6.749,2.496,9.287
			c0.228,1.721,0.087,6.71-0.244,8.631c-0.916,5.33-2.441,9.477-5.094,13.848c-1.994,3.282-3.044,4.92-3.5,5.47
			c-0.262,0.313-0.586,0.752-0.722,0.977c-0.222,0.365-0.89,1.185-2.507,3.068c-0.297,0.349-1.502,1.604-2.676,2.791
			c-6.137,6.207-14.55,11.53-25.54,16.172c-8.413,3.552-12.888,5.004-18.861,6.125C17.845,97.083,13.688,97.389,10.736,97.174z
			 M18.403,93.768c2.462-0.336,7.245-1.298,9.016-1.812c0.344-0.101,1.267-0.356,2.055-0.573c2.363-0.65,6.418-2.12,9.462-3.431
			c2.129-0.916,6.701-3.196,8.591-4.285c0.854-0.491,1.668-0.959,1.805-1.033c0.218-0.119,1.131-0.692,3.395-2.126
			c0.324-0.206,1.447-0.991,2.497-1.744c1.05-0.752,2.029-1.451,2.18-1.554c0.148-0.103,0.841-0.633,1.535-1.184
			c0.696-0.55,1.56-1.222,1.916-1.496c2.226-1.703,4.692-4.048,6.201-5.892c1.334-1.629,2.104-2.627,2.413-3.135
			c0.146-0.239,0.496-0.744,0.778-1.121c0.282-0.375,0.628-0.881,0.769-1.12c0.142-0.239,0.666-1.105,1.167-1.929
			c0.502-0.822,1.205-2.015,1.565-2.646c0.979-1.729,1.244-2.323,2.227-5.01c0.19-0.52,0.707-2.549,0.983-3.859
			c0.929-4.402,0.723-10.681-0.503-15.313c-1.146-4.332-2.563-7.433-5.237-11.473c-2.209-3.335-5.959-7.069-9.437-9.397
			c-2.602-1.74-3.069-2.01-5.165-2.969C51.349,8.261,46.684,7.112,40.6,6.726c-2.646-0.168-4.934-0.05-9.009,0.468
			c-7.982,1.016-16.487,3.55-23.984,7.145c-1.128,0.542-1.787,0.929-1.83,1.076C5.398,16.68,4.592,27.601,4.39,34.193
			c-0.038,1.231-0.097,2.885-0.131,3.672C4.063,42.502,3.95,45.994,3.885,49.63c-0.04,2.26-0.098,4.809-0.126,5.663
			C3.594,60.207,3.803,74.48,4.15,81.687c0.442,9.244,0.572,11.119,0.792,11.384c0.144,0.175,1.065,0.438,2.447,0.698
			c0.911,0.174,5.197,0.343,7.468,0.293C15.751,94.044,17.347,93.913,18.403,93.768z M20.163,75.186
			c-0.216-0.26-0.29-0.928-0.455-4.027c-0.151-2.875-0.164-15.975-0.017-17.41c0.036-0.347,0.095-2.252,0.133-4.238
			c0.036-1.984,0.095-4.002,0.132-4.481c0.035-0.479,0.173-3.112,0.309-5.85c0.267-5.432,0.36-7.231,0.435-8.28
			c0.026-0.377,0.089-1.291,0.136-2.029c0.083-1.319,0.094-1.354,0.472-1.639c0.617-0.469,3.636-1.996,4.994-2.526
			c3.479-1.366,7.762-2.436,10.332-2.583c0.616-0.035,1.4-0.097,1.743-0.135c0.829-0.093,4.46-0.054,5.166,0.056
			c0.418,0.063,0.553,0.137,0.528,0.287c-0.021,0.11,0.074,0.228,0.209,0.264c0.32,0.083,0.419-0.027,0.227-0.259
			c-0.134-0.162-0.059-0.175,0.594-0.101c1.288,0.147,3.766,0.741,5.104,1.226c2.54,0.919,5.599,2.899,7.417,4.805
			c1.839,1.924,2.943,3.757,3.708,6.15c0.556,1.738,0.692,2.757,0.686,5.077c-0.008,2.108-0.048,2.399-0.715,4.979
			c-1.138,4.41-3.881,9.47-7.286,13.445c-1.326,1.547-4.987,5.084-5.398,5.215c-0.085,0.027-0.39,0.251-0.675,0.498
			c-1.107,0.955-3.346,2.503-3.618,2.504l-0.155,0.098c0,0.293-6.525,3.888-7.057,3.888c-0.059,0-0.355,0.133-0.663,0.297
			c-1.628,0.859-6.649,2.623-10.146,3.56c-0.549,0.146-1.248,0.344-1.558,0.438c-0.641,0.193-1.291,0.344-3.038,0.69
			C20.245,75.386,20.324,75.382,20.163,75.186z M25.365,71.151c1.772-0.432,4.526-1.275,6.038-1.852
			c0.686-0.261,1.468-0.554,1.742-0.65c0.272-0.098,0.554-0.221,0.62-0.273c0.07-0.053,0.52-0.25,0.998-0.439
			c2.009-0.793,5.952-3.016,8.441-4.761c4.237-2.968,9.15-7.751,11.098-10.804c0.264-0.41,0.628-0.973,0.813-1.244
			c0.648-0.963,1.715-2.875,2.151-3.859c1.229-2.762,1.637-4.169,1.855-6.403c0.121-1.223,0.109-1.637-0.081-2.926
			c-0.197-1.339-0.729-3.292-1.086-3.987c-1.119-2.182-2.384-3.806-3.767-4.841c-3.822-2.858-8.695-4.346-14.261-4.349
			c-4.993-0.004-10.005,1.17-14.289,3.348c-1.862,0.946-1.853,0.931-1.947,2.871c-0.044,0.877-0.16,2.688-0.259,4.023
			c-0.098,1.334-0.237,3.464-0.31,4.729c-0.072,1.268-0.186,3.2-0.249,4.297c-0.38,6.398-0.438,8.75-0.438,17.615
			c0,7.652,0.03,9.455,0.169,9.693c0.151,0.27,0.223,0.288,0.809,0.214C23.77,71.508,24.646,71.329,25.365,71.151L25.365,71.151z
			 M40.43,89.782l-0.056-0.123l-0.132,0.123l0.055,0.125L40.43,89.782z M84.395,97.11c-0.252-0.094-0.269-0.182-0.271-1.381
			c-0.002-0.705-0.088-3.322-0.191-5.822c-0.242-5.828-0.24-21.072,0.005-26.705c0.012-0.273,0.03-0.818,0.043-1.213
			c0.017-0.544,0.065-0.718,0.208-0.718c0.229,0,0.229-0.036-0.003-0.801c-0.118-0.395-0.164-0.887-0.123-1.369
			c0.032-0.415,0.09-1.427,0.123-2.249c0.296-6.984,0.836-14.255,1.084-14.582c0.06-0.078,0.343-0.202,0.634-0.278
			c0.598-0.157,4.616-0.558,7.685-0.763c2.67-0.18,7.23-0.581,9.258-0.813c1.976-0.228,2.5-0.23,2.68-0.018
			c0.103,0.124,0.09,0.803-0.047,2.583c-0.102,1.329-0.214,2.612-0.245,2.854c-0.034,0.24-0.147,1.864-0.25,3.609
			c-0.104,1.746-0.218,3.483-0.253,3.859c-0.104,1.085-0.662,12.167-0.804,15.936c-0.159,4.313-0.338,9.836-0.567,17.555
			c-0.172,5.806-0.256,6.796-0.593,7.07c-0.083,0.067-0.685,0.188-1.335,0.266c-2.53,0.296-5.121,0.772-10.403,1.925
			c-1.714,0.374-3.593,0.746-4.17,0.828c-0.577,0.079-1.309,0.188-1.621,0.237C84.922,97.169,84.544,97.165,84.395,97.11z
			 M88.688,93.577c1.315-0.254,2.577-0.508,3.405-0.682c1.707-0.357,4.928-1.025,6.304-1.308c1.88-0.383,2.141-0.48,2.217-0.838
			c0.033-0.156,0.086-4.01,0.119-8.563c0.058-8.17,0.141-11.153,0.511-18.237c0.215-4.111,0.362-6.403,0.639-9.959
			c0.105-1.369,0.217-2.854,0.246-3.301c0.028-0.443,0.136-1.763,0.237-2.926c0.239-2.748,0.239-3.474-0.004-3.675
			c-0.335-0.278-5.049-0.036-10.992,0.567c-2.965,0.3-3.507,0.409-3.511,0.715c0,0.083-0.085,1.245-0.188,2.581
			c-0.2,2.62-0.62,11.348-0.753,15.686c-0.045,1.473-0.104,2.715-0.131,2.762c-0.027,0.045-0.05,4.078-0.051,8.964
			c-0.002,10.62,0.255,17.74,0.656,18.246C87.549,93.805,87.51,93.805,88.688,93.577z M391.078,95.469
			c-0.103-0.16-0.229-0.989-0.313-2.015c-0.077-0.957-0.221-2.304-0.316-2.987c-0.215-1.519-0.494-6.92-0.78-15.063
			c-0.195-5.577-0.085-16.731,0.219-22.034c0.563-9.837,1.051-15.563,2.122-24.96c0.123-1.086,0.399-2.149,0.626-2.409
			c0.296-0.342,6.823-1.884,13.809-3.261l2.176-0.43l0.438,0.355c0.241,0.194,0.73,0.768,1.091,1.273
			c0.688,0.974,4.467,6.618,5.086,7.599c0.631,1,1.694,2.51,2.283,3.24c0.802,0.992,2.027,2.688,2.375,3.278
			c0.162,0.274,0.429,0.666,0.591,0.871c0.162,0.206,0.721,0.991,1.237,1.743c0.52,0.754,1.075,1.51,1.24,1.682
			c0.164,0.172,0.563,0.684,0.886,1.138c0.323,0.454,0.928,1.243,1.336,1.757c0.41,0.51,1.109,1.427,1.551,2.037
			c0.44,0.609,1.006,1.357,1.255,1.668c0.249,0.308,0.911,1.151,1.472,1.877c1.85,2.396,2.673,3.174,2.925,2.76
			c0.031-0.051,0.093-1.213,0.136-2.584c0.043-1.368,0.109-3.438,0.146-4.598c0.037-1.161,0.086-2.142,0.109-2.18
			c0.021-0.038,0.074-1.05,0.116-2.248s0.16-3.412,0.264-4.917c0.102-1.506,0.21-3.16,0.239-3.672
			c0.26-4.251,0.612-8.301,0.741-8.437c0.159-0.169,0.266-0.181,4.558-0.467c1.54-0.102,3.612-0.243,4.604-0.314
			c3.339-0.238,8.271-0.492,9.54-0.492c0.993-0.002,1.294,0.039,1.423,0.194c0.132,0.161,0.124,0.573-0.047,2.333
			c-0.112,1.177-0.265,2.812-0.331,3.633c-0.066,0.822-0.209,2.53-0.313,3.797c-0.295,3.567-0.611,8.257-0.743,11.019
			c-0.04,0.821-0.103,1.857-0.133,2.304c-0.095,1.198-0.406,9.422-0.5,13.073c-0.046,1.745-0.1,3.426-0.119,3.731
			c-0.021,0.312-0.078,5.156-0.129,10.771c-0.066,7.401-0.052,11.145,0.061,13.606c0.118,2.646,0.118,3.439,0.002,3.58
			c-0.087,0.105-0.364,0.18-0.663,0.178c-0.281-0.002-1.131,0.166-1.884,0.373c-0.753,0.205-2.49,0.625-3.858,0.931
			c-2.356,0.524-3.632,0.815-7.299,1.668c-0.861,0.2-1.703,0.338-1.865,0.306c-0.182-0.035-0.522-0.363-0.869-0.826
			c-0.867-1.162-2.188-2.965-3.387-4.625c-0.594-0.822-2.046-2.812-3.229-4.422c-1.186-1.609-2.572-3.511-3.084-4.222
			c-0.515-0.713-1.13-1.563-1.371-1.896c-1.697-2.336-3.182-4.444-6.188-8.794c-0.533-0.771-1.307-1.878-1.718-2.456
			c-0.412-0.578-1.194-1.694-1.741-2.481c-4.812-6.916-5.19-7.371-5.343-6.396c-0.148,0.962-0.21,1.746-0.44,5.701
			c-0.432,7.313-0.524,10.838-0.5,18.613c0.013,4.176,0.019,7.652,0.011,7.729c-0.026,0.237-0.511,0.381-5.634,1.658
			c-2.766,0.69-6.525,1.643-8.36,2.116l-3.332,0.86L391.078,95.469z M395.737,91.59c1.518-0.354,4.31-1.084,5.478-1.431
			c0.445-0.134,1.649-0.475,2.678-0.757c1.026-0.28,1.937-0.571,2.021-0.641c0.117-0.098,0.15-1.754,0.148-7.116
			c-0.008-11.12,0.362-18.718,1.428-29.273c0.172-1.713,0.355-2.431,0.625-2.429c0.126,0,0.801,0.902,1.121,1.496
			c0.072,0.14,0.466,0.771,0.871,1.402c0.403,0.63,0.983,1.538,1.292,2.018c0.716,1.13,1.324,2.072,2.324,3.61
			c0.446,0.686,0.899,1.44,1.005,1.68c0.106,0.24,0.298,0.546,0.424,0.686c0.127,0.138,0.803,1.119,1.504,2.182
			c2.342,3.548,5.892,8.765,7.246,10.646c2.603,3.613,5.714,7.805,7.718,10.396c1.142,1.477,4.813,6.042,5.407,6.727
			c0.146,0.17,0.405,0.474,0.574,0.676c0.385,0.457,0.66,0.459,2.521,0.014c1.981-0.477,3.045-0.731,5.976-1.438
			c1.438-0.347,2.807-0.716,3.037-0.819l0.422-0.19l-0.097-5.254c-0.116-6.364-0.157-11.251-0.18-21.563
			c-0.021-8.482,0.141-13.586,0.675-21.726c0.132-2.029,0.459-5.569,0.882-9.586l0.429-4.047l-0.277-0.229
			c-0.26-0.213-0.464-0.226-2.833-0.152c-3.77,0.116-5.687,0.19-6.662,0.259c-2.513,0.176-4.246,0.347-4.491,0.439
			c-0.234,0.089-0.294,0.253-0.409,1.139c-0.264,2.018-0.547,5.604-0.948,12.054c-0.228,3.682-0.359,9.012-0.365,14.842
			c-0.008,5.463-0.042,6.84-0.176,6.972c-0.184,0.182-0.243,0.122-1.327-1.328c-0.344-0.459-0.738-0.955-0.882-1.104
			c-0.347-0.359-3.536-4.386-3.922-4.942c-0.167-0.242-0.666-0.904-1.108-1.47c-0.766-0.97-1.568-2.002-2.864-3.677
			c-0.31-0.396-0.842-1.104-1.183-1.571c-0.345-0.467-1.271-1.708-2.063-2.759c-1.656-2.203-2.035-2.788-1.921-2.973
			c0.111-0.18-0.168-0.496-0.437-0.496c-0.122,0-0.43-0.308-0.711-0.716c-1.03-1.492-1.91-2.72-2.205-3.08
			c-0.168-0.206-0.584-0.767-0.928-1.245c-0.34-0.479-0.728-1.013-0.856-1.183c-0.132-0.171-0.604-0.843-1.05-1.494
			c-3.375-4.933-6.079-8.707-6.323-8.832c-0.104-0.053-0.611-0.052-1.125,0.001c-0.994,0.104-5.701,0.998-6.849,1.302
			c-0.375,0.1-1.355,0.327-2.179,0.508c-1.244,0.271-1.813,0.44-2.021,0.605c-0.057,0.043-0.29,1.356-0.415,2.308
			c-0.066,0.515-0.175,1.299-0.234,1.743c-0.423,3.034-0.536,3.904-0.752,5.85c-0.135,1.199-0.271,2.517-0.307,2.928
			c-0.033,0.411-0.148,1.784-0.255,3.05c-0.969,11.48-1.129,24.088-0.486,38.281c0.04,0.892,0.093,1.897,0.115,2.24
			c0.021,0.344,0.139,2.106,0.258,3.922c0.117,1.813,0.261,3.427,0.314,3.58C393.524,91.993,394.046,91.985,395.737,91.59z
			 M407.657,68.587c-0.028-0.086-0.126-0.155-0.217-0.155c-0.095,0-0.19,0.069-0.22,0.155c-0.029,0.093,0.06,0.154,0.22,0.154
			C407.6,68.741,407.688,68.68,407.657,68.587z M373.282,40.795c-3.828-0.796-6.493-3.007-7.639-6.335
			c-0.323-0.949-0.348-1.14-0.346-3.065c0.002-2.01,0.012-2.082,0.426-3.283c1.442-4.184,4.854-6.987,9.348-7.684
			c0.57-0.088,1.656-0.119,2.802-0.078c2.195,0.078,3.132,0.301,4.917,1.177c0.997,0.489,1.36,0.757,2.309,1.706
			c0.912,0.913,1.229,1.33,1.646,2.187c0.73,1.493,0.947,2.481,0.947,4.356c0,2.356-0.563,4.229-1.85,6.161
			c-1.533,2.305-3.813,3.891-6.663,4.637C377.684,40.965,374.647,41.08,373.282,40.795z M377.436,38.605
			c2.969-0.479,5.384-2.259,6.66-4.908c0.627-1.299,0.852-2.234,0.848-3.563c-0.011-3.399-2.28-6.222-5.643-7.012
			c-1.183-0.28-3.335-0.253-4.554,0.054c-3.699,0.936-6.438,4.126-6.73,7.846c-0.281,3.572,2.125,6.76,5.687,7.522
			C374.683,38.758,376.341,38.784,377.436,38.605z M378.867,36.57c-0.066-0.099-0.793-1.053-1.609-2.122
			c-1.396-1.829-1.51-1.943-1.867-1.907l-0.382,0.036l-0.097,1.121c-0.053,0.615-0.138,1.429-0.188,1.805l-0.089,0.685l-0.934-0.042
			c-0.516-0.021-0.981-0.086-1.039-0.143c-0.211-0.202-0.782-10.059-0.595-10.246c0.183-0.182,2.356-0.463,3.563-0.458
			c3.789,0.012,6.188,1.508,5.851,3.65c-0.188,1.186-0.927,2.12-2.174,2.753c-0.346,0.175-0.628,0.365-0.628,0.424
			c0,0.058,0.615,0.767,1.365,1.577c1.138,1.224,1.341,1.503,1.215,1.655c-0.202,0.249-1.952,1.388-2.129,1.388
			C379.055,36.748,378.936,36.667,378.867,36.57z M377.148,30.134c0.654-0.125,1.347-0.507,1.569-0.868
			c0.221-0.352-0.003-0.813-0.504-1.055c-0.594-0.286-2.677-0.413-2.958-0.179c-0.244,0.202-0.27,2.186-0.03,2.284
			C375.405,30.392,376.204,30.313,377.148,30.134z M94.397,36.667c-2.962-0.344-5.688-1.297-7.905-2.767
			c-2.014-1.333-3.712-3.034-5.155-5.164c-1.896-2.795-2.86-5.746-3.024-9.247c-0.231-4.938,1.564-9.735,5-13.352
			c2.646-2.787,5.604-4.357,9.638-5.118c1.177-0.223,1.683-0.249,3.646-0.193c3.419,0.097,4.861,0.446,7.736,1.884
			c4.195,2.095,8.025,6.779,9.099,11.13c0.444,1.799,0.569,2.796,0.572,4.576c0.005,3.353-0.744,6.253-2.373,9.178
			c-2.406,4.325-6.349,7.337-11.241,8.59C98.508,36.666,96.08,36.86,94.397,36.667z M98.921,33.561
			c2.69-0.618,5.018-1.769,6.933-3.431c1.504-1.308,3.204-3.469,3.754-4.774c0.953-2.266,1.346-4.469,1.253-7.019
			c-0.077-2.112-0.311-3.172-1.132-5.16c-0.807-1.951-1.555-3.065-3.063-4.567c-1.413-1.403-2.472-2.178-4.051-2.957
			c-2.535-1.255-4.679-1.628-8.04-1.403c-3.104,0.208-4.747,0.813-7.178,2.645c-1.925,1.449-3.438,3.172-4.295,4.891
			c-0.63,1.263-1.248,3.021-1.479,4.207c-0.261,1.352-0.313,3.812-0.109,5.219c0.371,2.563,1.941,5.794,3.785,7.785
			c0.732,0.791,2.521,2.269,3.311,2.736c1.766,1.044,3.837,1.787,5.637,2.018C95.342,33.892,97.938,33.786,98.921,33.561z"/>
		<path style="fill:#FF8000;" d="M456.664,87.258c0-3.164,0.932-5.738,2.799-7.727c1.865-1.987,4.582-2.981,8.152-2.981
			c3.894,0,6.854,0.974,8.883,2.92c2.026,1.947,3.041,4.503,3.041,7.666c0,2.841-1.055,5.335-3.163,7.483
			c-2.11,2.147-4.989,3.225-8.64,3.225c-3.651,0-6.408-1.016-8.273-3.042C457.596,92.773,456.664,90.26,456.664,87.258z"/>
		<path style="fill:#FF8000;" d="M505.943,38.343c2.025-1.054,4.217-1.582,6.569-1.582c5.19,0,9.126,1.886,11.804,5.658
			c2.678,3.771,4.217,9.105,4.624,16.001c0.16,2.515,0.263,5.293,0.304,8.335s0.041,6.205,0,9.49
			c-0.041,3.286-0.103,6.612-0.182,9.979c-0.082,3.366-0.204,6.673-0.365,9.916c-1.542-0.081-3.205-0.163-4.989-0.243
			c-1.542-0.082-3.267-0.163-5.171-0.243c-1.907-0.081-3.875-0.202-5.902-0.364c0.162-2.515,0.284-5.293,0.365-8.335
			c0.08-3.042,0.141-6.084,0.184-9.126c0.039-3.042,0.039-5.962,0-8.762c-0.043-2.799-0.143-5.211-0.305-7.238
			c-0.244-3.407-0.791-5.842-1.643-7.302c-0.853-1.461-2.172-2.189-3.955-2.189c-2.271,0-4.219,1.055-5.84,3.163
			c0.16,6.328,0.282,13.001,0.364,20.017c0.079,7.019,0.079,13.812,0,20.381c-1.946,0.08-3.875,0.122-5.779,0.122
			c-1.907,0-3.632,0-5.171,0h-5.111c-0.082-4.138-0.143-8.719-0.182-13.75c-0.043-5.027-0.043-10.139,0-15.331
			c0.039-5.189,0.078-10.281,0.12-15.271c0.04-4.989,0.062-9.432,0.062-13.324c1.379-0.08,2.879-0.162,4.502-0.243
			c1.379-0.08,2.961-0.141,4.746-0.183c1.783-0.04,3.688-0.062,5.719-0.062c0.08,0.649,0.121,1.299,0.121,1.946v2.799
			C502.211,40.817,503.914,39.396,505.943,38.343z"/>
		<path style="fill:#FF8000;" d="M552.059,95.41c-1.543,0.08-3.164,0.121-4.866,0.121h-10.708
			c-0.082-5.435-0.163-11.903-0.243-19.407c-0.082-7.502-0.164-15.21-0.244-23.119c-0.082-7.909-0.144-15.554-0.182-22.938
			c-0.044-7.38-0.021-13.628,0.061-18.737c2.108,0.082,4.116,0.143,6.023,0.183c1.903,0.042,3.629,0.104,5.171,0.183
			c1.783,0.082,3.445,0.121,4.988,0.121c0,3.571,0.02,7.647,0.062,12.229c0.039,4.583,0.061,9.411,0.061,14.479
			c0,5.07,0,10.264,0,15.575c0,5.313,0,10.464,0,15.453c0,4.988-0.021,9.715-0.061,14.175
			C552.077,88.19,552.059,92.085,552.059,95.41z"/>
	</g>
	<g id="Layer_1_1_">
	</g>
</g>
<g id="Layer_1">
</g>
</svg>
