<?xml version="1.0" standalone="no"?>
<!DOCTYPE svg PUBLIC "-//W3C//DTD SVG 20010904//EN"
 "http://www.w3.org/TR/2001/REC-SVG-20010904/DTD/svg10.dtd">
<svg version="1.0" xmlns="http://www.w3.org/2000/svg"
 width="256.000000pt" height="256.000000pt" viewBox="0 0 256.000000 256.000000"
 preserveAspectRatio="xMidYMid meet">
<metadata>
Created by potrace 1.11, written by Peter Selinger 2001-2013
</metadata>
<g transform="translate(0.000000,256.000000) scale(0.100000,-0.100000)"
fill="#000000" stroke="none">
<path d="M1163 2172 c-6 -4 -10 -30 -8 -60 4 -73 -24 -88 -87 -47 -20 14 -51
27 -68 30 l-30 5 14 -35 c9 -20 13 -41 10 -48 -7 -20 -63 -49 -84 -44 -10 2
-24 1 -31 -4 -11 -8 -10 -13 6 -27 48 -40 34 -80 -30 -89 -22 -3 -42 -7 -44
-9 -10 -9 25 -33 52 -37 38 -4 51 -26 30 -49 -9 -10 -21 -18 -27 -18 -6 0 -17
-4 -25 -9 -11 -7 -7 -15 20 -39 32 -29 33 -30 21 -71 -7 -22 -18 -42 -25 -43
-35 -4 -43 -2 -55 14 -19 25 -72 51 -103 50 -15 0 -42 -8 -59 -17 -55 -29 -82
-131 -42 -165 9 -9 25 -32 36 -52 l19 -37 -33 -37 c-41 -48 -62 -97 -55 -132
3 -15 7 -32 9 -39 1 -7 5 -16 9 -19 4 -4 7 -19 7 -34 0 -22 -11 -35 -62 -68
-56 -37 -122 -95 -155 -135 -19 -24 -86 -111 -117 -153 -17 -21 -35 -43 -41
-49 -7 -5 -31 -44 -54 -85 -37 -64 -113 -174 -132 -190 -24 -20 -29 -63 -29
-239 l0 -191 1280 0 1280 0 0 263 0 263 -34 80 c-51 116 -85 175 -119 207 -16
15 -27 27 -23 27 4 0 1 6 -6 13 -7 8 -24 29 -38 47 -25 34 -117 137 -135 152
-70 57 -99 78 -111 78 -17 0 -16 -2 -19 83 -1 38 -6 72 -11 75 -24 18 -74 94
-75 114 0 13 7 43 15 67 26 67 30 126 11 145 -9 9 -22 16 -28 17 -7 0 -21 3
-32 6 -63 16 -90 11 -127 -25 l-37 -35 -53 34 c-29 19 -56 33 -61 31 -10 -3
12 38 29 55 7 7 17 13 23 13 16 0 24 20 13 33 -6 7 -13 41 -16 77 -6 71 -21
126 -42 151 -8 8 -14 23 -14 32 0 19 -8 24 -44 31 -43 8 -67 35 -62 67 8 51
-18 55 -69 13 -67 -57 -114 -54 -119 6 -3 35 -32 65 -53 52 -6 -4 -12 -20 -14
-37 -7 -67 -45 -74 -74 -13 -20 41 -51 63 -72 50z"/>
</g>
</svg>
